<svg width="32" height="32" viewBox="0 0 32 32" fill="none" xmlns="http://www.w3.org/2000/svg">
<path d="M29.9999 7V15C29.9999 15.2652 29.8946 15.5196 29.7071 15.7071C29.5195 15.8946 29.2652 16 28.9999 16C28.7347 16 28.4804 15.8946 28.2928 15.7071C28.1053 15.5196 27.9999 15.2652 27.9999 15V9.41375L17.7074 19.7075C17.6146 19.8005 17.5043 19.8742 17.3829 19.9246C17.2615 19.9749 17.1314 20.0008 16.9999 20.0008C16.8685 20.0008 16.7384 19.9749 16.617 19.9246C16.4956 19.8742 16.3853 19.8005 16.2924 19.7075L11.9999 15.4137L3.70745 23.7075C3.51981 23.8951 3.26531 24.0006 2.99995 24.0006C2.73458 24.0006 2.48009 23.8951 2.29245 23.7075C2.10481 23.5199 1.99939 23.2654 1.99939 23C1.99939 22.7346 2.10481 22.4801 2.29245 22.2925L11.2924 13.2925C11.3853 13.1995 11.4956 13.1258 11.617 13.0754C11.7384 13.0251 11.8685 12.9992 11.9999 12.9992C12.1314 12.9992 12.2615 13.0251 12.3829 13.0754C12.5043 13.1258 12.6146 13.1995 12.7074 13.2925L16.9999 17.5863L26.5862 8H20.9999C20.7347 8 20.4804 7.89464 20.2928 7.70711C20.1053 7.51957 19.9999 7.26522 19.9999 7C19.9999 6.73478 20.1053 6.48043 20.2928 6.29289C20.4804 6.10536 20.7347 6 20.9999 6H28.9999C29.2652 6 29.5195 6.10536 29.7071 6.29289C29.8946 6.48043 29.9999 6.73478 29.9999 7Z" fill="#232230"/>
</svg>
