<svg width="32" height="32" viewBox="0 0 32 32" fill="none" xmlns="http://www.w3.org/2000/svg">
<path d="M27.0525 4.94987C25.804 3.70139 24.1107 3 22.345 3C20.5794 3 18.886 3.70139 17.6375 4.94987L4.95002 17.6361C3.72763 18.89 3.04846 20.5749 3.05965 22.326C3.07083 24.0771 3.77146 25.7532 5.00976 26.9914C6.24806 28.2295 7.92431 28.9299 9.67539 28.9409C11.4265 28.9518 13.1113 28.2724 14.365 27.0499L27.0538 14.3636C28.3002 13.1142 29 11.4213 28.9998 9.65649C28.9996 7.89165 28.2993 6.19899 27.0525 4.94987ZM12.9513 25.6361C12.0779 26.5097 10.8932 27.0005 9.65797 27.0006C8.42269 27.0007 7.23796 26.5101 6.3644 25.6367C5.49084 24.7634 5.00002 23.5787 4.9999 22.3434C4.99978 21.1082 5.49038 19.9234 6.36378 19.0499L12 13.4136L18.5875 19.9999L12.9513 25.6361ZM25.6388 12.9499L20 18.5861L13.415 11.9999L19.0525 6.36362C19.9294 5.50703 21.1086 5.03065 22.3344 5.03781C23.5602 5.04497 24.7337 5.5351 25.6005 6.40188C26.4673 7.26867 26.9574 8.44222 26.9646 9.66802C26.9717 10.8938 26.4954 12.073 25.6388 12.9499ZM23.71 10.2924C23.803 10.3852 23.8768 10.4955 23.9271 10.6169C23.9774 10.7383 24.0033 10.8685 24.0033 10.9999C24.0033 11.1313 23.9774 11.2614 23.9271 11.3828C23.8768 11.5042 23.803 11.6145 23.71 11.7074L20.71 14.7074C20.6171 14.8002 20.5068 14.8738 20.3855 14.924C20.2641 14.9742 20.134 15 20.0027 15C19.8714 14.9999 19.7413 14.974 19.62 14.9237C19.4987 14.8734 19.3885 14.7997 19.2957 14.7067C19.2028 14.6138 19.1292 14.5036 19.079 14.3822C19.0288 14.2608 19.003 14.1308 19.003 13.9994C19.0031 13.8681 19.029 13.7381 19.0793 13.6167C19.1296 13.4954 19.2034 13.3852 19.2963 13.2924L22.2963 10.2924C22.4838 10.105 22.738 9.99971 23.0031 9.99971C23.2683 9.99971 23.5225 10.105 23.71 10.2924Z" fill="#232230"/>
</svg>
