<svg width="32" height="32" viewBox="0 0 32 32" fill="none" xmlns="http://www.w3.org/2000/svg">
<path d="M14.97 27.2421C14.9159 27.4585 14.7911 27.6505 14.6153 27.7878C14.4396 27.925 14.223 27.9996 14 27.9996C13.9157 28.0001 13.8318 27.99 13.75 27.9696L9.75 26.9696C9.63864 26.9417 9.53293 26.8947 9.4375 26.8309L6.4375 24.8309C6.21687 24.6837 6.06376 24.4549 6.01183 24.1948C5.95991 23.9347 6.01343 23.6647 6.16063 23.444C6.30782 23.2234 6.53663 23.0703 6.79672 23.0184C7.05681 22.9664 7.32688 23.02 7.5475 23.1671L10.4025 25.0709L14.235 26.0296C14.3631 26.0607 14.4837 26.1167 14.59 26.1946C14.6963 26.2724 14.7862 26.3704 14.8545 26.4831C14.9228 26.5958 14.9682 26.7209 14.988 26.8511C15.0078 26.9814 15.0017 27.1143 14.97 27.2421ZM31.5563 15.1847C31.4742 15.4339 31.3436 15.6644 31.1719 15.8628C31.0003 16.0613 30.791 16.2238 30.5563 16.3409L27.5963 17.8209L20.7113 24.7071C20.5891 24.8292 20.4373 24.9176 20.2708 24.9636C20.1044 25.0096 19.9288 25.0117 19.7613 24.9696L11.7613 22.9696C11.6396 22.9391 11.5247 22.8861 11.4225 22.8134L4.4825 17.8584L1.4475 16.3409C0.973172 16.1038 0.612429 15.688 0.444594 15.185C0.276759 14.6819 0.315573 14.1328 0.552502 13.6584L3.65875 7.44715C3.89587 6.97282 4.31166 6.61208 4.81469 6.44424C5.31773 6.27641 5.86683 6.31522 6.34125 6.55215L9.09875 7.92715L15.7238 6.03465C15.9035 5.98324 16.094 5.98324 16.2738 6.03465L22.8988 7.92715L25.6563 6.55215C26.1307 6.31522 26.6798 6.27641 27.1828 6.44424C27.6858 6.61208 28.1016 6.97282 28.3388 7.44715L31.445 13.6584C31.5635 13.8928 31.6343 14.1484 31.6534 14.4104C31.6725 14.6724 31.6395 14.9355 31.5563 15.1847ZM25.7838 16.8021L22.3825 9.99965H18.405L13 15.2497C14.5825 16.2609 17.0638 16.5397 19.29 14.2959C19.4639 14.1206 19.6964 14.0159 19.9429 14.0018C20.1893 13.9877 20.4323 14.0653 20.625 14.2197L24.9263 17.6659L25.7838 16.8021ZM2.34125 14.5521L4.5525 15.6584L7.65875 9.44715L5.4475 8.3409L2.34125 14.5521ZM23.5 19.0822L20.0363 16.3084C17.5938 18.3084 14.4925 18.5722 11.9225 16.9334C11.6697 16.7726 11.4563 16.557 11.2979 16.3027C11.1396 16.0483 11.0405 15.7616 11.0078 15.4638C10.9752 15.1659 11.0099 14.8646 11.1094 14.5819C11.2088 14.2993 11.3705 14.0426 11.5825 13.8309C11.5855 13.8273 11.5889 13.8239 11.5925 13.8209L17.2 8.38215L16 8.03965L9.6975 9.8409L6.27625 16.6822L12.4263 21.0759L19.6938 22.8921L23.5 19.0822ZM29.655 14.5521L26.5525 8.3409L24.3413 9.44715L27.4475 15.6584L29.655 14.5521Z" fill="#232230"/>
</svg>
