<svg width="32" height="32" viewBox="0 0 32 32" fill="none" xmlns="http://www.w3.org/2000/svg">
<path d="M25 19C24.1161 18.9995 23.2572 19.2933 22.5587 19.835L19.67 17.585C19.8881 17.085 20.0004 16.5454 20 16C20 15.9075 20 15.815 19.99 15.7237L21.6437 15.1725C22.1669 15.9794 22.9633 16.5708 23.8871 16.8384C24.8108 17.106 25.8 17.0318 26.6735 16.6294C27.547 16.2271 28.2463 15.5235 28.6433 14.6476C29.0402 13.7716 29.1084 12.782 28.8351 11.8599C28.5619 10.9378 27.9656 10.1451 27.1555 9.62683C26.3454 9.10858 25.3757 8.89955 24.424 9.03803C23.4723 9.1765 22.6024 9.65321 21.9736 10.3808C21.3447 11.1085 20.9991 12.0383 21 13C21 13.0925 21 13.185 21.01 13.2762L19.3562 13.8275C18.9937 13.267 18.4967 12.8062 17.9105 12.487C17.3242 12.1678 16.6675 12.0004 16 12C15.7793 12.0004 15.559 12.0188 15.3412 12.055L14.4862 10.125C15.2245 9.5351 15.7301 8.70288 15.9134 7.77584C16.0967 6.84879 15.9458 5.88679 15.4876 5.06034C15.0293 4.23388 14.2933 3.59636 13.4099 3.26075C12.5265 2.92514 11.5528 2.91313 10.6614 3.22685C9.77003 3.54056 9.01848 4.15974 8.54 4.97464C8.06151 5.78954 7.88698 6.74753 8.04735 7.67882C8.20772 8.6101 8.69263 9.45453 9.41613 10.0624C10.1396 10.6704 11.055 11.0025 12 11C12.2207 10.9995 12.441 10.9811 12.6587 10.945L13.5137 12.87C12.7887 13.4438 12.2854 14.2517 12.09 15.1555C11.8947 16.0593 12.0192 17.0029 12.4425 17.825L9.22872 20.68C8.41995 20.1348 7.44009 19.9032 6.47281 20.0287C5.50553 20.1543 4.61724 20.6283 3.97443 21.3619C3.33163 22.0955 2.97845 23.0384 2.98109 24.0138C2.98374 24.9892 3.34202 25.9301 3.98879 26.6602C4.63556 27.3903 5.52641 27.8595 6.49435 27.9798C7.4623 28.1001 8.44089 27.8632 9.2467 27.3136C10.0525 26.764 10.6302 25.9394 10.8715 24.9943C11.1128 24.0493 11.0012 23.0486 10.5575 22.18L13.7712 19.325C14.4671 19.7935 15.2929 20.0307 16.1313 20.0029C16.9697 19.9751 17.778 19.6836 18.4412 19.17L21.33 21.42C21.1126 21.9184 21.0002 22.4562 21 23C21 23.7911 21.2346 24.5645 21.6741 25.2223C22.1136 25.8801 22.7383 26.3928 23.4692 26.6955C24.2001 26.9983 25.0044 27.0775 25.7803 26.9231C26.5563 26.7688 27.269 26.3878 27.8284 25.8284C28.3878 25.269 28.7688 24.5563 28.9231 23.7803C29.0775 23.0044 28.9982 22.2002 28.6955 21.4693C28.3927 20.7383 27.8801 20.1136 27.2223 19.6741C26.5645 19.2346 25.7911 19 25 19ZM25 11C25.3955 11 25.7822 11.1173 26.1111 11.337C26.44 11.5568 26.6964 11.8692 26.8477 12.2346C26.9991 12.6001 27.0387 13.0022 26.9615 13.3902C26.8844 13.7781 26.6939 14.1345 26.4142 14.4142C26.1345 14.6939 25.7781 14.8844 25.3902 14.9616C25.0022 15.0387 24.6001 14.9991 24.2346 14.8477C23.8692 14.6964 23.5568 14.44 23.337 14.1111C23.1173 13.7822 23 13.3955 23 13C23 12.4696 23.2107 11.9608 23.5858 11.5858C23.9608 11.2107 24.4695 11 25 11ZM9.99997 6.99999C9.99997 6.60442 10.1173 6.21774 10.337 5.88885C10.5568 5.55995 10.8692 5.3036 11.2346 5.15223C11.6001 5.00085 12.0022 4.96124 12.3902 5.03842C12.7781 5.11559 13.1345 5.30607 13.4142 5.58577C13.6939 5.86548 13.8844 6.22184 13.9615 6.60981C14.0387 6.99777 13.9991 7.3999 13.8477 7.76535C13.6964 8.13081 13.44 8.44316 13.1111 8.66292C12.7822 8.88269 12.3955 8.99999 12 8.99999C11.4695 8.99999 10.9608 8.78927 10.5858 8.4142C10.2107 8.03913 9.99997 7.53042 9.99997 6.99999ZM6.99997 26C6.60441 26 6.21773 25.8827 5.88883 25.6629C5.55994 25.4432 5.30359 25.1308 5.15222 24.7654C5.00084 24.3999 4.96123 23.9978 5.0384 23.6098C5.11557 23.2218 5.30606 22.8655 5.58576 22.5858C5.86547 22.3061 6.22183 22.1156 6.60979 22.0384C6.99776 21.9612 7.39989 22.0009 7.76534 22.1522C8.13079 22.3036 8.44315 22.5599 8.66291 22.8888C8.88268 23.2177 8.99997 23.6044 8.99997 24C8.99997 24.5304 8.78926 25.0391 8.41419 25.4142C8.03912 25.7893 7.53041 26 6.99997 26ZM14 16C14 15.6044 14.1173 15.2177 14.337 14.8888C14.5568 14.5599 14.8692 14.3036 15.2346 14.1522C15.6001 14.0009 16.0022 13.9612 16.3902 14.0384C16.7781 14.1156 17.1345 14.3061 17.4142 14.5858C17.6939 14.8655 17.8844 15.2218 17.9615 15.6098C18.0387 15.9978 17.9991 16.3999 17.8477 16.7654C17.6964 17.1308 17.44 17.4432 17.1111 17.6629C16.7822 17.8827 16.3955 18 16 18C15.4695 18 14.9608 17.7893 14.5858 17.4142C14.2107 17.0391 14 16.5304 14 16ZM25 25C24.6044 25 24.2177 24.8827 23.8888 24.6629C23.5599 24.4432 23.3036 24.1308 23.1522 23.7654C23.0008 23.3999 22.9612 22.9978 23.0384 22.6098C23.1156 22.2218 23.3061 21.8655 23.5858 21.5858C23.8655 21.3061 24.2218 21.1156 24.6098 21.0384C24.9978 20.9612 25.3999 21.0009 25.7653 21.1522C26.1308 21.3036 26.4432 21.5599 26.6629 21.8888C26.8827 22.2177 27 22.6044 27 23C27 23.5304 26.7893 24.0391 26.4142 24.4142C26.0391 24.7893 25.5304 25 25 25Z" fill="#232230"/>
</svg>
