<svg width="32" height="32" viewBox="0 0 32 32" fill="none" xmlns="http://www.w3.org/2000/svg">
<path d="M22 29.0003C22 29.2655 21.8947 29.5198 21.7071 29.7074C21.5196 29.8949 21.2652 30.0003 21 30.0003H11C10.7348 30.0003 10.4804 29.8949 10.2929 29.7074C10.1054 29.5198 10 29.2655 10 29.0003C10 28.735 10.1054 28.4807 10.2929 28.2932C10.4804 28.1056 10.7348 28.0003 11 28.0003H21C21.2652 28.0003 21.5196 28.1056 21.7071 28.2932C21.8947 28.4807 22 28.735 22 29.0003ZM27 13.0003C27.0043 14.6673 26.6277 16.3133 25.899 17.8127C25.1702 19.312 24.1085 20.625 22.795 21.6515C22.5494 21.8398 22.3501 22.0817 22.2123 22.3588C22.0745 22.6359 22.0019 22.9408 22 23.2503V24.0003C22 24.5307 21.7893 25.0394 21.4142 25.4145C21.0392 25.7895 20.5304 26.0003 20 26.0003H12C11.4696 26.0003 10.9609 25.7895 10.5858 25.4145C10.2107 25.0394 10 24.5307 10 24.0003V23.2503C9.99981 22.9445 9.9295 22.6429 9.7945 22.3685C9.6595 22.0942 9.46339 21.8545 9.22126 21.6678C7.91101 20.6473 6.85007 19.3422 6.11873 17.8512C5.3874 16.3601 5.00484 14.7222 5.00001 13.0615C4.96751 7.10401 9.78251 2.14276 15.735 2.00026C17.2017 1.96492 18.6606 2.22333 20.026 2.76029C21.3913 3.29724 22.6354 4.10189 23.6851 5.12688C24.7347 6.15186 25.5688 7.37647 26.1381 8.72862C26.7074 10.0808 27.0004 11.5332 27 13.0003ZM25 13.0003C25.0004 11.7998 24.7606 10.6115 24.2947 9.50512C23.8289 8.39877 23.1464 7.39679 22.2875 6.55815C21.4286 5.71952 20.4107 5.06118 19.2935 4.6219C18.1763 4.18261 16.9826 3.97125 15.7825 4.00026C10.9075 4.11526 6.97376 8.17401 7.00001 13.049C7.00458 14.4072 7.31801 15.7467 7.91658 16.9659C8.51515 18.1851 9.38319 19.2522 10.455 20.0865C10.9368 20.4611 11.3265 20.9409 11.5943 21.4893C11.8621 22.0376 12.0009 22.64 12 23.2503V24.0003H20V23.2503C20.0014 22.6383 20.1425 22.0347 20.4127 21.4855C20.6828 20.9363 21.0748 20.4561 21.5588 20.0815C22.6339 19.2413 23.5028 18.1665 24.0992 16.9393C24.6956 15.712 25.0037 14.3648 25 13.0003ZM22.9863 11.8328C22.727 10.3844 22.0301 9.05022 20.9896 8.00989C19.949 6.96955 18.6147 6.27301 17.1663 6.01401C17.0367 5.99218 16.9042 5.99607 16.7762 6.02547C16.6482 6.05486 16.5272 6.10918 16.4202 6.18532C16.3132 6.26147 16.2222 6.35794 16.1525 6.46925C16.0827 6.58055 16.0356 6.7045 16.0138 6.83401C15.9919 6.96353 15.9958 7.09608 16.0252 7.22409C16.0546 7.3521 16.1089 7.47307 16.1851 7.58009C16.2612 7.68711 16.3577 7.77808 16.469 7.84782C16.5803 7.91755 16.7042 7.96468 16.8338 7.98651C18.905 8.33526 20.6625 10.0928 21.0138 12.1678C21.0533 12.4007 21.1741 12.612 21.3546 12.7644C21.5351 12.9168 21.7638 13.0004 22 13.0003C22.0565 12.9999 22.1129 12.9953 22.1688 12.9865C22.4301 12.9419 22.6631 12.7953 22.8164 12.5789C22.9697 12.3626 23.0308 12.0942 22.9863 11.8328Z" fill="#232230"/>
</svg>
