<svg width="32" height="32" viewBox="0 0 32 32" fill="none" xmlns="http://www.w3.org/2000/svg">
<path d="M16 22.0005C17.9778 22.0005 19.9112 21.414 21.5557 20.3152C23.2002 19.2164 24.4819 17.6546 25.2388 15.8273C25.9957 14.0001 26.1937 11.9894 25.8079 10.0496C25.422 8.10977 24.4696 6.32794 23.0711 4.92942C21.6725 3.53089 19.8907 2.57848 17.9509 2.19263C16.0111 1.80678 14.0004 2.00481 12.1732 2.76169C10.3459 3.51856 8.78412 4.80029 7.6853 6.44478C6.58649 8.08927 6 10.0227 6 12.0005C6.00298 14.6517 7.0575 17.1935 8.93222 19.0683C10.8069 20.943 13.3488 21.9975 16 22.0005ZM16 4.00048C17.5823 4.00048 19.129 4.46968 20.4446 5.34873C21.7602 6.22778 22.7855 7.47721 23.391 8.93902C23.9965 10.4008 24.155 12.0094 23.8463 13.5612C23.5376 15.1131 22.7757 16.5385 21.6569 17.6573C20.538 18.7762 19.1126 19.5381 17.5607 19.8468C16.0089 20.1554 14.4003 19.997 12.9385 19.3915C11.4767 18.786 10.2273 17.7606 9.34824 16.445C8.46919 15.1295 8 13.5827 8 12.0005C8.00232 9.87946 8.84592 7.84598 10.3457 6.34619C11.8455 4.8464 13.879 4.0028 16 4.00048ZM25.7213 20.688C25.8124 20.7827 25.8839 20.8945 25.9318 21.0169C25.9797 21.1394 26.0029 21.27 26.0002 21.4014C25.9976 21.5329 25.969 21.6625 25.9162 21.7829C25.8634 21.9032 25.7874 22.012 25.6925 22.103C23.3392 24.3723 20.2615 25.7399 17 25.9655V28.0005H20C20.2652 28.0005 20.5196 28.1058 20.7071 28.2934C20.8946 28.4809 21 28.7353 21 29.0005C21 29.2657 20.8946 29.5201 20.7071 29.7076C20.5196 29.8951 20.2652 30.0005 20 30.0005H12C11.7348 30.0005 11.4804 29.8951 11.2929 29.7076C11.1054 29.5201 11 29.2657 11 29.0005C11 28.7353 11.1054 28.4809 11.2929 28.2934C11.4804 28.1058 11.7348 28.0005 12 28.0005H15V25.9642C12.3478 25.7743 9.80446 24.8329 7.66767 23.2503C5.53089 21.6677 3.889 19.5093 2.9341 17.0276C1.9792 14.5459 1.75078 11.8437 2.27558 9.23692C2.80038 6.63018 4.05668 4.2268 5.8975 2.30798C5.98786 2.21089 6.09663 2.13275 6.21748 2.0781C6.33833 2.02345 6.46884 1.99338 6.60142 1.98965C6.734 1.98592 6.86599 2.00861 6.98972 2.05638C7.11345 2.10415 7.22644 2.17606 7.32211 2.26792C7.41779 2.35978 7.49423 2.46975 7.54699 2.59144C7.59976 2.71312 7.62779 2.84409 7.62945 2.97671C7.63112 3.10933 7.60638 3.24095 7.55669 3.36393C7.507 3.4869 7.43334 3.59875 7.34 3.69298C5.16011 5.95732 3.95564 8.98655 3.98549 12.1295C4.01535 15.2725 5.27715 18.2783 7.49967 20.5008C9.72219 22.7233 12.728 23.9851 15.871 24.015C19.0139 24.0448 22.0432 22.8404 24.3075 20.6605C24.4986 20.4767 24.755 20.3763 25.0201 20.3815C25.2852 20.3867 25.5374 20.4969 25.7213 20.688Z" fill="#232230"/>
</svg>
