<svg width="32" height="32" viewBox="0 0 32 32" fill="none" xmlns="http://www.w3.org/2000/svg">
<path d="M26.9737 14.8177C26.9359 14.6635 26.859 14.5207 26.75 14.4019C26.6409 14.2831 26.5031 14.1921 26.3487 14.137L19.1475 11.5377L20.98 2.71755C21.0215 2.51262 20.9926 2.30026 20.8976 2.11252C20.8027 1.92478 20.6469 1.77184 20.4537 1.67679C20.2605 1.58174 20.0404 1.54973 19.8267 1.58559C19.6129 1.62145 19.4171 1.72324 19.2687 1.87559L5.26873 16.3092C5.15502 16.4245 5.07277 16.5651 5.02931 16.7184C4.98585 16.8718 4.98255 17.0331 5.01969 17.188C5.05683 17.3428 5.13326 17.4865 5.24216 17.606C5.35105 17.7255 5.48902 17.8172 5.64373 17.8729L12.8475 20.4721L11.02 29.2826C10.9785 29.4876 11.0074 29.6999 11.1023 29.8877C11.1973 30.0754 11.3531 30.2283 11.5463 30.3234C11.7395 30.4184 11.9595 30.4505 12.1733 30.4146C12.387 30.3787 12.5829 30.277 12.7312 30.1246L26.7312 15.691C26.8429 15.5757 26.9234 15.4357 26.9657 15.2835C27.008 15.1312 27.0107 14.9713 26.9737 14.8177ZM13.6712 26.3442L14.98 20.0439C15.0268 19.8205 14.9897 19.5883 14.8752 19.3887C14.7608 19.1891 14.5764 19.0352 14.355 18.9542L7.74998 16.5666L18.3275 5.66201L17.02 11.9623C16.9731 12.1857 17.0103 12.4179 17.1247 12.6175C17.2392 12.8171 17.4235 12.971 17.645 13.052L24.245 15.4336L13.6712 26.3442Z" fill="#232230"/>
</svg>
