<svg width="32" height="32" viewBox="0 0 32 32" fill="none" xmlns="http://www.w3.org/2000/svg">
<path d="M20.5 10C21.1923 10 21.8689 9.79473 22.4445 9.41015C23.0201 9.02556 23.4687 8.47894 23.7336 7.83939C23.9985 7.19985 24.0678 6.49612 23.9328 5.81719C23.7977 5.13825 23.4644 4.51461 22.9749 4.02513C22.4854 3.53564 21.8618 3.2023 21.1828 3.06725C20.5039 2.9322 19.8002 3.00152 19.1606 3.26642C18.5211 3.53133 17.9745 3.97993 17.5899 4.55551C17.2053 5.13108 17 5.80777 17 6.5C17 7.42826 17.3688 8.3185 18.0252 8.97487C18.6815 9.63125 19.5718 10 20.5 10ZM20.5 5C20.7967 5 21.0867 5.08798 21.3334 5.2528C21.5801 5.41762 21.7723 5.65189 21.8858 5.92598C21.9994 6.20007 22.0291 6.50167 21.9712 6.79264C21.9133 7.08361 21.7705 7.35088 21.5607 7.56066C21.3509 7.77044 21.0836 7.9133 20.7927 7.97118C20.5017 8.02906 20.2001 7.99935 19.926 7.88582C19.6519 7.77229 19.4176 7.58003 19.2528 7.33336C19.088 7.08668 19 6.79667 19 6.5C19 6.10218 19.1581 5.72065 19.4394 5.43934C19.7207 5.15804 20.1022 5 20.5 5ZM31.86 24.49L25.04 12.98C24.8641 12.6802 24.6125 12.4318 24.3105 12.2598C24.0084 12.0878 23.6664 11.9982 23.3188 12C22.9713 11.9982 22.6295 12.0878 22.3276 12.2598C22.0257 12.4318 21.7744 12.6802 21.5988 12.98L18.3288 18.5L12.7238 8.9875C12.5472 8.68733 12.2952 8.43848 11.9929 8.26559C11.6905 8.09269 11.3483 8.00174 11 8.00174C10.6517 8.00174 10.3095 8.09269 10.0072 8.26559C9.70484 8.43848 9.4529 8.68733 9.27628 8.9875L0.138776 24.4925C0.0493344 24.6444 0.00161441 24.8172 0.000449112 24.9934C-0.000716186 25.1696 0.0447146 25.343 0.13214 25.4961C0.219565 25.6491 0.345879 25.7763 0.498288 25.8648C0.650697 25.9533 0.823787 25.9999 1.00003 26H31C31.1765 26 31.3499 25.9532 31.5025 25.8645C31.6551 25.7758 31.7814 25.6483 31.8688 25.4949C31.9562 25.3415 32.0014 25.1678 31.9998 24.9913C31.9983 24.8148 31.95 24.6418 31.86 24.49ZM11 10L13.9463 15H8.05378L11 10ZM2.75003 24L6.87503 17H15.125L17.4675 20.975L19.25 24H2.75003ZM21.5713 24L19.4888 20.465L23.3188 14L29.25 24H21.5713Z" fill="#232230"/>
</svg>
