<svg width="32" height="32" viewBox="0 0 32 32" fill="none" xmlns="http://www.w3.org/2000/svg">
<path d="M29.415 9.17095L22.8287 2.58595C22.643 2.40018 22.4225 2.25282 22.1798 2.15228C21.9371 2.05175 21.677 2 21.4143 2C21.1517 2 20.8916 2.05175 20.6489 2.15228C20.4062 2.25282 20.1857 2.40018 20 2.58595L2.58497 19.9997C2.39921 20.1854 2.25185 20.4059 2.15131 20.6486C2.05077 20.8913 1.99902 21.1514 1.99902 21.4141C1.99902 21.6768 2.05077 21.9369 2.15131 22.1795C2.25185 22.4222 2.39921 22.6427 2.58497 22.8284L9.17122 29.4134C9.35694 29.5992 9.57744 29.7466 9.82012 29.8471C10.0628 29.9477 10.3229 29.9994 10.5856 29.9994C10.8483 29.9994 11.1084 29.9477 11.3511 29.8471C11.5937 29.7466 11.8142 29.5992 12 29.4134L29.415 11.9997C29.6007 11.814 29.7481 11.5935 29.8486 11.3508C29.9492 11.1081 30.0009 10.848 30.0009 10.5853C30.0009 10.3226 29.9492 10.0625 29.8486 9.81985C29.7481 9.57717 29.6007 9.35667 29.415 9.17095ZM10.585 27.9997L3.99997 21.4134L7.99997 17.4134L11.2925 20.7072C11.3854 20.8001 11.4957 20.8738 11.6171 20.9241C11.7385 20.9744 11.8686 21.0003 12 21.0003C12.1314 21.0003 12.2615 20.9744 12.3829 20.9241C12.5043 20.8738 12.6146 20.8001 12.7075 20.7072C12.8004 20.6143 12.8741 20.504 12.9244 20.3826C12.9746 20.2612 13.0005 20.1311 13.0005 19.9997C13.0005 19.8683 12.9746 19.7382 12.9244 19.6168C12.8741 19.4954 12.8004 19.3851 12.7075 19.2922L9.41372 15.9997L12 13.4134L15.2925 16.7072C15.4801 16.8948 15.7346 17.0003 16 17.0003C16.2653 17.0003 16.5198 16.8948 16.7075 16.7072C16.8951 16.5196 17.0005 16.2651 17.0005 15.9997C17.0005 15.7343 16.8951 15.4798 16.7075 15.2922L13.4137 11.9997L16 9.41345L19.2925 12.7072C19.3854 12.8001 19.4957 12.8738 19.6171 12.9241C19.7385 12.9744 19.8686 13.0003 20 13.0003C20.1314 13.0003 20.2615 12.9744 20.3829 12.9241C20.5043 12.8738 20.6146 12.8001 20.7075 12.7072C20.8004 12.6143 20.8741 12.504 20.9244 12.3826C20.9746 12.2612 21.0005 12.1311 21.0005 11.9997C21.0005 11.8683 20.9746 11.7382 20.9244 11.6168C20.8741 11.4954 20.8004 11.3851 20.7075 11.2922L17.4137 7.9997L21.4137 3.9997L28 10.5859L10.585 27.9997Z" fill="#232230"/>
</svg>
