<svg width="32" height="32" viewBox="0 0 32 32" fill="none" xmlns="http://www.w3.org/2000/svg">
<path d="M27 11.9997C27.0011 10.1459 26.5337 8.32199 25.6412 6.69723C24.7487 5.07246 23.4601 3.6996 21.895 2.70616C20.33 1.71271 18.5392 1.1309 16.6891 1.01477C14.839 0.898642 12.9896 1.25196 11.3125 2.0419C9.63553 2.83184 8.18535 4.03279 7.0967 5.5332C6.00805 7.0336 5.31624 8.7848 5.08553 10.6241C4.85482 12.4635 5.09268 14.3313 5.77704 16.0541C6.4614 17.7769 7.57004 19.2988 9 20.4784V29.9997C8.99988 30.1702 9.04338 30.338 9.12636 30.487C9.20934 30.636 9.32905 30.7613 9.4741 30.851C9.61916 30.9406 9.78474 30.9917 9.95511 30.9994C10.1255 31.0071 10.295 30.971 10.4475 30.8947L16 28.1247L21.5538 30.9009C21.693 30.9676 21.8457 31.0014 22 30.9997C22.2652 30.9997 22.5196 30.8943 22.7071 30.7068C22.8946 30.5193 23 30.2649 23 29.9997V20.4784C24.2512 19.448 25.2587 18.1533 25.9503 16.6874C26.6419 15.2214 27.0003 13.6206 27 11.9997ZM7 11.9997C7 10.2197 7.52784 8.47961 8.51677 6.99956C9.50571 5.51952 10.9113 4.36597 12.5559 3.68478C14.2004 3.00359 16.01 2.82536 17.7558 3.17263C19.5016 3.5199 21.1053 4.37706 22.364 5.63574C23.6226 6.89441 24.4798 8.49805 24.8271 10.2439C25.1743 11.9897 24.9961 13.7993 24.3149 15.4438C23.6337 17.0884 22.4802 18.494 21.0001 19.4829C19.5201 20.4719 17.78 20.9997 16 20.9997C13.6139 20.997 11.3262 20.048 9.63896 18.3607C7.95171 16.6735 7.00265 14.3858 7 11.9997ZM21 28.3822L16.4463 26.1059C16.3073 26.0364 16.1541 26.0002 15.9988 26.0002C15.8434 26.0002 15.6902 26.0364 15.5513 26.1059L11 28.3822V21.7959C12.548 22.5871 14.2616 22.9997 16 22.9997C17.7384 22.9997 19.452 22.5871 21 21.7959V28.3822ZM16 18.9997C17.3845 18.9997 18.7378 18.5892 19.889 17.82C21.0401 17.0508 21.9373 15.9576 22.4672 14.6785C22.997 13.3994 23.1356 11.9919 22.8655 10.6341C22.5954 9.2762 21.9287 8.02892 20.9497 7.04995C19.9708 6.07098 18.7235 5.4043 17.3656 5.1342C16.0078 4.8641 14.6003 5.00273 13.3212 5.53254C12.0421 6.06235 10.9489 6.95956 10.1797 8.1107C9.41054 9.26185 9 10.6152 9 11.9997C9.00199 13.8556 9.74012 15.6349 11.0524 16.9473C12.3648 18.2596 14.1441 18.9977 16 18.9997ZM16 6.9997C16.9889 6.9997 17.9556 7.29294 18.7779 7.84235C19.6001 8.39176 20.241 9.17265 20.6194 10.0863C20.9978 10.9999 21.0969 12.0052 20.9039 12.9751C20.711 13.9451 20.2348 14.836 19.5355 15.5352C18.8363 16.2345 17.9454 16.7107 16.9755 16.9036C16.0055 17.0965 15.0002 16.9975 14.0866 16.6191C13.173 16.2407 12.3921 15.5998 11.8427 14.7775C11.2932 13.9553 11 12.9886 11 11.9997C11 10.6736 11.5268 9.40184 12.4645 8.46416C13.4021 7.52648 14.6739 6.9997 16 6.9997Z" fill="#232230"/>
</svg>
