<svg width="32" height="32" viewBox="0 0 32 32" fill="none" xmlns="http://www.w3.org/2000/svg">
<path d="M20.7075 11.292C20.8005 11.3849 20.8742 11.4952 20.9246 11.6166C20.9749 11.738 21.0008 11.8681 21.0008 11.9995C21.0008 12.1309 20.9749 12.2611 20.9246 12.3825C20.8742 12.5039 20.8005 12.6142 20.7075 12.707L12.7075 20.707C12.6146 20.7999 12.5043 20.8736 12.3829 20.9239C12.2615 20.9742 12.1314 21.0001 12 21.0001C11.8686 21.0001 11.7385 20.9742 11.6171 20.9239C11.4957 20.8736 11.3854 20.7999 11.2925 20.707C11.1996 20.6141 11.1259 20.5038 11.0756 20.3824C11.0253 20.261 10.9994 20.1309 10.9994 19.9995C10.9994 19.8681 11.0253 19.738 11.0756 19.6166C11.1259 19.4952 11.1996 19.3849 11.2925 19.292L19.2925 11.292C19.3854 11.1991 19.4957 11.1253 19.6171 11.075C19.7384 11.0246 19.8686 10.9987 20 10.9987C20.1314 10.9987 20.2615 11.0246 20.3829 11.075C20.5043 11.1253 20.6146 11.1991 20.7075 11.292ZM26.95 5.04953C26.3 4.39944 25.5283 3.88376 24.6789 3.53193C23.8296 3.18011 22.9193 2.99902 22 2.99902C21.0807 2.99902 20.1704 3.18011 19.321 3.53193C18.4717 3.88376 17.7 4.39944 17.05 5.04953L13.2925 8.80578C13.1048 8.99342 12.9994 9.24791 12.9994 9.51328C12.9994 9.77864 13.1048 10.0331 13.2925 10.2208C13.4801 10.4084 13.7346 10.5138 14 10.5138C14.2654 10.5138 14.5199 10.4084 14.7075 10.2208L18.465 6.47078C19.4061 5.55034 20.6722 5.03817 21.9886 5.04542C23.305 5.05267 24.5654 5.57875 25.4963 6.5095C26.4272 7.44025 26.9535 8.70056 26.961 10.0169C26.9685 11.3333 26.4565 12.5995 25.5362 13.5408L21.7775 17.2983C21.5898 17.4858 21.4844 17.7401 21.4843 18.0053C21.4841 18.2706 21.5894 18.525 21.7769 18.7127C21.9643 18.9003 22.2187 19.0058 22.4839 19.0059C22.7492 19.006 23.0036 18.9008 23.1912 18.7133L26.95 14.9495C27.6001 14.2995 28.1158 13.5278 28.4676 12.6785C28.8194 11.8292 29.0005 10.9188 29.0005 9.99953C29.0005 9.08022 28.8194 8.16991 28.4676 7.32058C28.1158 6.47125 27.6001 5.69955 26.95 5.04953ZM17.2925 21.777L13.535 25.5345C13.0726 26.0073 12.521 26.3837 11.9121 26.6418C11.3033 26.9 10.6493 27.0347 9.98796 27.0384C9.32665 27.042 8.67119 26.9144 8.05953 26.663C7.44787 26.4116 6.89216 26.0414 6.42458 25.5737C5.95699 25.106 5.58683 24.5502 5.33552 23.9385C5.08421 23.3268 4.95674 22.6714 4.9605 22.01C4.96426 21.3487 5.09917 20.6947 5.35742 20.0859C5.61567 19.4771 5.99212 18.9256 6.46499 18.4633L10.2212 14.707C10.4089 14.5194 10.5143 14.2649 10.5143 13.9995C10.5143 13.7342 10.4089 13.4797 10.2212 13.292C10.0336 13.1044 9.7791 12.999 9.51374 12.999C9.24838 12.999 8.99388 13.1044 8.80624 13.292L5.04999 17.0495C3.73717 18.3623 2.99963 20.1429 2.99963 21.9995C2.99963 23.8561 3.73717 25.6367 5.04999 26.9495C6.36281 28.2624 8.14338 28.9999 9.99999 28.9999C11.8566 28.9999 13.6372 28.2624 14.95 26.9495L18.7075 23.1908C18.895 23.0031 19.0002 22.7487 19.0001 22.4835C19 22.2182 18.8945 21.9639 18.7069 21.7764C18.5192 21.5889 18.2648 21.4837 17.9995 21.4838C17.7343 21.4839 17.48 21.5894 17.2925 21.777Z" fill="#232230"/>
</svg>
