<svg width="32" height="32" viewBox="0 0 32 32" fill="none" xmlns="http://www.w3.org/2000/svg">
<path d="M16.0007 19.9997L12.0007 15.9997M16.0007 19.9997C17.8631 19.2913 19.6498 18.398 21.334 17.333M16.0007 19.9997V26.6663C16.0007 26.6663 20.0407 25.933 21.334 23.9997C22.774 21.8397 21.334 17.333 21.334 17.333M12.0007 15.9997C12.7102 14.1589 13.6036 12.3944 14.6673 10.733C16.2209 8.249 18.3841 6.20374 20.9513 4.7918C23.5185 3.37986 26.4042 2.64817 29.334 2.66635C29.334 6.29301 28.294 12.6663 21.334 17.333M12.0007 15.9997L5.33398 15.9997C5.33398 15.9997 6.06732 11.9597 8.00065 10.6664C10.1607 9.22637 14.6673 10.6664 14.6673 10.6664M6.00065 21.9998C4.00065 23.6798 3.33398 28.6664 3.33398 28.6664C3.33398 28.6664 8.32065 27.9998 10.0007 25.9998C10.9473 24.8798 10.934 23.1598 9.88065 22.1198C9.36239 21.6251 8.67971 21.3393 7.96362 21.3171C7.24753 21.295 6.54849 21.5381 6.00065 21.9998Z" stroke="#232230" stroke-width="2" stroke-linecap="round" stroke-linejoin="round"/>
</svg>
