<svg width="32" height="32" viewBox="0 0 32 32" fill="none" xmlns="http://www.w3.org/2000/svg">
<path d="M16 17.3333C16.7364 17.3333 17.3334 16.7364 17.3334 16C17.3334 15.2636 16.7364 14.6667 16 14.6667C15.2636 14.6667 14.6667 15.2636 14.6667 16C14.6667 16.7364 15.2636 17.3333 16 17.3333Z" stroke="#232230" stroke-width="2" stroke-linecap="round" stroke-linejoin="round"/>
<path d="M26.9334 26.9332C29.6534 24.2265 26.96 17.1198 20.9334 11.0665C14.88 5.03985 7.77336 2.34651 5.0667 5.06651C2.3467 7.77318 5.04003 14.8798 11.0667 20.9332C17.12 26.9598 24.2267 29.6532 26.9334 26.9332Z" stroke="#232230" stroke-width="2" stroke-linecap="round" stroke-linejoin="round"/>
<path d="M20.9334 20.9332C26.96 14.8798 29.6534 7.77318 26.9334 5.06651C24.2267 2.34651 17.12 5.03985 11.0667 11.0665C5.04003 17.1198 2.3467 24.2265 5.0667 26.9332C7.77336 29.6532 14.88 26.9598 20.9334 20.9332Z" stroke="#232230" stroke-width="2" stroke-linecap="round" stroke-linejoin="round"/>
</svg>
