<svg width="32" height="32" viewBox="0 0 32 32" fill="none" xmlns="http://www.w3.org/2000/svg">
<path d="M16.0006 16.0006V16.014M14.4368 21.8394C13.0396 22.5455 11.468 22.832 9.91162 22.6645C8.35522 22.4971 6.88055 21.8827 5.66562 20.8956C4.4507 19.9085 3.54743 18.5908 3.06487 17.1017C2.5823 15.6125 2.54105 14.0155 2.9461 12.5034L10.1621 14.4368C9.45607 13.0396 9.1695 11.468 9.33699 9.91162C9.50447 8.35522 10.1188 6.88055 11.106 5.66562C12.0931 4.4507 13.4107 3.54743 14.8999 3.06487C16.389 2.5823 17.986 2.54105 19.4981 2.9461L17.5648 10.1621C18.9619 9.45607 20.5335 9.1695 22.0899 9.33699C23.6463 9.50447 25.121 10.1188 26.3359 11.106C27.5508 12.0931 28.4541 13.4107 28.9367 14.8999C29.4192 16.389 29.4605 17.986 29.0554 19.4981L21.8394 17.5648C22.5455 18.9619 22.832 20.5335 22.6645 22.0899C22.4971 23.6463 21.8827 25.121 20.8956 26.3359C19.9085 27.5508 18.5908 28.4541 17.1017 28.9367C15.6125 29.4192 14.0155 29.4605 12.5034 29.0554L14.4368 21.8394Z" stroke="#232230" stroke-width="2" stroke-linecap="round" stroke-linejoin="round"/>
</svg>
