<svg width="32" height="32" viewBox="0 0 32 32" fill="none" xmlns="http://www.w3.org/2000/svg">
<path d="M15.9993 17.3327V2.66602L26.666 7.99935L15.9993 13.3327M27.4142 13.6285C28.1238 15.8154 28.1902 18.16 27.6055 20.3835C27.0208 22.607 25.8098 24.6158 24.1163 26.1708C22.4229 27.7258 20.3184 28.7616 18.0532 29.155C15.788 29.5483 13.4575 29.2827 11.339 28.3897C9.22042 27.4967 7.40298 26.0139 6.10289 24.1177C4.8028 22.2215 4.07478 19.9918 4.00546 17.6938C3.93613 15.3957 4.52842 13.1262 5.71185 11.155C6.89527 9.18394 8.62003 7.59428 10.6809 6.5752M10.6685 13.3288C10.0004 14.2181 9.56545 15.2606 9.40327 16.361C9.24109 17.4615 9.35685 18.5851 9.74001 19.6294C10.1232 20.6737 10.7616 21.6055 11.597 22.3399C12.4324 23.0744 13.4383 23.5881 14.5231 23.8343C15.6079 24.0805 16.737 24.0514 17.8077 23.7496C18.8783 23.4477 19.8564 22.8828 20.6528 22.1062C21.4493 21.3297 22.0387 20.3661 22.3675 19.3035C22.6963 18.2408 22.7539 17.1128 22.5352 16.0221" stroke="#232230" stroke-width="2" stroke-linecap="round" stroke-linejoin="round"/>
</svg>
