<svg width="32" height="32" viewBox="0 0 32 32" fill="none" xmlns="http://www.w3.org/2000/svg">
<path d="M25.9187 10.4667C25.8533 10.8961 25.9973 11.3307 26.304 11.6374L28.3947 13.7281C29.0213 14.3547 29.336 15.1774 29.336 16.0001C29.336 16.8227 29.0227 17.6441 28.3947 18.2721L26.2467 20.4201C26.1023 20.5643 25.9262 20.6727 25.7324 20.7366C25.5386 20.8005 25.3325 20.8181 25.1307 20.7881C24.504 20.6947 24.0613 20.1481 23.84 19.5547C23.6458 19.0304 23.3229 18.5634 22.901 18.1966C22.479 17.8297 21.9717 17.5748 21.4255 17.4554C20.8793 17.3359 20.3118 17.3557 19.7753 17.5129C19.2387 17.6701 18.7503 17.9597 18.355 18.3551C17.9597 18.7504 17.6701 19.2388 17.5129 19.7753C17.3556 20.3119 17.3359 20.8793 17.4553 21.4255C17.5748 21.9717 17.8296 22.4791 18.1965 22.901C18.5633 23.3229 19.0304 23.6459 19.5547 23.8401C20.1493 24.0614 20.6947 24.5027 20.788 25.1307C20.8182 25.3326 20.8006 25.5387 20.7367 25.7325C20.6728 25.9263 20.5643 26.1024 20.42 26.2467L18.2733 28.3934C17.9752 28.6925 17.6209 28.9298 17.2307 29.0916C16.8406 29.2534 16.4224 29.3365 16 29.3361C15.578 29.3366 15.16 29.2537 14.77 29.0922C14.3801 28.9306 14.026 28.6936 13.728 28.3947L11.6373 26.3041C11.4862 26.1527 11.3017 26.0388 11.0986 25.9717C10.8956 25.9045 10.6796 25.8859 10.468 25.9174C9.81067 26.0161 9.348 26.5894 9.108 27.2081C8.90684 27.7244 8.58012 28.1825 8.1574 28.5408C7.73468 28.8991 7.2293 29.1464 6.68697 29.2602C6.14465 29.3741 5.58249 29.3509 5.05136 29.1929C4.52023 29.0348 4.03688 28.7469 3.64504 28.355C3.2532 27.9632 2.96523 27.4798 2.80718 26.9487C2.64913 26.4176 2.62599 25.8554 2.73985 25.3131C2.85372 24.7708 3.10099 24.2654 3.4593 23.8427C3.81761 23.4199 4.27566 23.0932 4.792 22.8921C5.41067 22.6521 5.984 22.1894 6.08134 21.5321C6.11296 21.3206 6.09457 21.1047 6.02765 20.9016C5.96073 20.6985 5.84715 20.514 5.696 20.3627L3.60534 18.2721C3.30647 17.9741 3.06945 17.6199 2.9079 17.23C2.74635 16.8401 2.66347 16.4221 2.664 16.0001C2.664 15.1774 2.97867 14.3547 3.60534 13.7281L5.64 11.6934C5.96 11.3734 6.41467 11.2227 6.86267 11.2894C7.54934 11.3921 8.032 11.9934 8.29334 12.6361C8.50093 13.1451 8.83119 13.5948 9.25469 13.9453C9.67819 14.2957 10.1818 14.536 10.7206 14.6447C11.2595 14.7534 11.8169 14.7272 12.3431 14.5683C12.8694 14.4095 13.3482 14.1229 13.7369 13.7342C14.1256 13.3455 14.4121 12.8667 14.5709 12.3405C14.7298 11.8142 14.756 11.2569 14.6473 10.718C14.5386 10.1792 14.2983 9.67559 13.9479 9.25208C13.5974 8.82858 13.1477 8.49833 12.6387 8.29073C11.996 8.0294 11.3947 7.54673 11.292 6.86006C11.2253 6.41206 11.3747 5.95873 11.696 5.6374L13.7293 3.60407C14.0273 3.3056 14.3813 3.06891 14.7709 2.9076C15.1606 2.74629 15.5783 2.66353 16 2.66407C16.8227 2.66407 17.6453 2.97873 18.272 3.6054L20.3627 5.69606C20.6693 6.00273 21.104 6.14673 21.532 6.08273C22.1893 5.98406 22.652 5.41073 22.892 4.79207C23.0932 4.27572 23.4199 3.81767 23.8426 3.45936C24.2653 3.10105 24.7707 2.85378 25.313 2.73991C25.8554 2.62605 26.4175 2.64919 26.9486 2.80724C27.4798 2.96529 27.9631 3.25326 28.355 3.6451C28.7468 4.03694 29.0348 4.52029 29.1928 5.05142C29.3509 5.58256 29.374 6.14471 29.2602 6.68703C29.1463 7.22936 28.899 7.73474 28.5407 8.15746C28.1824 8.58018 27.7244 8.9069 27.208 9.10806C26.5893 9.34806 26.016 9.8094 25.9187 10.4667Z" stroke="#232230" stroke-width="2" stroke-linecap="round" stroke-linejoin="round"/>
</svg>
