<svg width="32" height="32" viewBox="0 0 32 32" fill="none" xmlns="http://www.w3.org/2000/svg">
<path d="M26.666 3.99967V9.33301M29.3327 6.66634H23.9993M5.33268 22.6663V25.333M6.66602 23.9997H3.99935M13.2486 20.6663C13.1296 20.2049 12.8891 19.7838 12.5521 19.4469C12.2151 19.1099 11.794 18.8694 11.3326 18.7503L3.1526 16.641C3.01304 16.6014 2.89021 16.5173 2.80275 16.4016C2.71529 16.2859 2.66797 16.1448 2.66797 15.9997C2.66797 15.8546 2.71529 15.7135 2.80275 15.5978C2.89021 15.482 3.01304 15.398 3.1526 15.3583L11.3326 13.2477C11.7939 13.1288 12.2149 12.8884 12.5518 12.5517C12.8888 12.215 13.1294 11.7942 13.2486 11.333L15.3579 3.15301C15.3971 3.01291 15.4811 2.88947 15.597 2.80154C15.7129 2.71361 15.8544 2.66602 15.9999 2.66602C16.1454 2.66602 16.2869 2.71361 16.4028 2.80154C16.5188 2.88947 16.6027 3.01291 16.6419 3.15301L18.7499 11.333C18.869 11.7944 19.1095 12.2155 19.4464 12.5525C19.7834 12.8895 20.2045 13.13 20.6659 13.249L28.8459 15.357C28.9866 15.3958 29.1107 15.4797 29.1991 15.5958C29.2875 15.7119 29.3353 15.8538 29.3353 15.9997C29.3353 16.1456 29.2875 16.2875 29.1991 16.4036C29.1107 16.5197 28.9866 16.6035 28.8459 16.6423L20.6659 18.7503C20.2045 18.8694 19.7834 19.1099 19.4464 19.4469C19.1095 19.7838 18.869 20.2049 18.7499 20.6663L16.6406 28.8463C16.6014 28.9865 16.5174 29.1099 16.4015 29.1978C16.2856 29.2858 16.1441 29.3333 15.9986 29.3333C15.8531 29.3333 15.7116 29.2858 15.5957 29.1978C15.4798 29.1099 15.3958 28.9865 15.3566 28.8463L13.2486 20.6663Z" stroke="#232230" stroke-width="2" stroke-linecap="round" stroke-linejoin="round"/>
</svg>
