<svg width="32" height="32" viewBox="0 0 32 32" fill="none" xmlns="http://www.w3.org/2000/svg">
<path d="M2.66602 16.0007C2.66602 17.7688 3.36839 19.4645 4.61864 20.7147C5.86888 21.9649 7.56457 22.6673 9.33268 22.6673C11.7963 22.7591 14.1521 23.7014 15.9993 25.334C17.8466 23.7014 20.2024 22.7591 22.666 22.6673C24.4341 22.6673 26.1298 21.9649 27.3801 20.7147C28.6303 19.4645 29.3327 17.7688 29.3327 16.0007V9.33398H22.666C20.2024 9.42575 17.8466 10.3681 15.9993 12.0007C14.1521 10.3681 11.7963 9.42575 9.33268 9.33398H2.66602V16.0007Z" stroke="#232230" stroke-width="2" stroke-linecap="round" stroke-linejoin="round"/>
<path d="M7.99935 14.6673C9.99935 14.6673 11.9993 15.334 11.9993 17.334C9.33268 17.334 7.99935 17.334 7.99935 14.6673Z" stroke="#232230" stroke-width="2" stroke-linecap="round" stroke-linejoin="round"/>
<path d="M23.9993 14.6673C21.9993 14.6673 19.9993 15.334 19.9993 17.334C22.666 17.334 23.9993 17.334 23.9993 14.6673Z" stroke="#232230" stroke-width="2" stroke-linecap="round" stroke-linejoin="round"/>
</svg>
