<svg width="32" height="32" viewBox="0 0 32 32" fill="none" xmlns="http://www.w3.org/2000/svg">
<path d="M13.5994 8.39941L8.39941 13.5994M9.33268 15.9993C9.33268 17.8403 7.8403 19.3327 5.99935 19.3327C4.1584 19.3327 2.66602 17.8403 2.66602 15.9993C2.66602 14.1584 4.1584 12.666 5.99935 12.666C7.8403 12.666 9.33268 14.1584 9.33268 15.9993ZM9.33268 15.9993H22.666M22.666 15.9993C22.666 17.8403 24.1584 19.3327 25.9993 19.3327C27.8403 19.3327 29.3327 17.8403 29.3327 15.9993C29.3327 14.1584 27.8403 12.666 25.9993 12.666C24.1584 12.666 22.666 14.1584 22.666 15.9993ZM18.3994 23.5994L23.5994 18.3994M19.3327 5.99935C19.3327 7.8403 17.8403 9.33268 15.9993 9.33268C14.1584 9.33268 12.666 7.8403 12.666 5.99935C12.666 4.1584 14.1584 2.66602 15.9993 2.66602C17.8403 2.66602 19.3327 4.1584 19.3327 5.99935ZM19.3327 25.9993C19.3327 27.8403 17.8403 29.3327 15.9993 29.3327C14.1584 29.3327 12.666 27.8403 12.666 25.9993C12.666 24.1584 14.1584 22.666 15.9993 22.666C17.8403 22.666 19.3327 24.1584 19.3327 25.9993Z" stroke="#232230" stroke-width="2" stroke-linecap="round" stroke-linejoin="round"/>
</svg>
