<svg width="32" height="32" viewBox="0 0 32 32" fill="none" xmlns="http://www.w3.org/2000/svg">
<path d="M2.66602 7.99935C3.46602 8.66602 4.26602 9.33268 5.99935 9.33268C9.33268 9.33268 9.33268 6.66602 12.666 6.66602C16.1327 6.66602 15.866 9.33268 19.3327 9.33268C22.666 9.33268 22.666 6.66602 25.9993 6.66602C27.7327 6.66602 28.5327 7.33268 29.3327 7.99935M2.66602 15.9993C3.46602 16.666 4.26602 17.3327 5.99935 17.3327C9.33268 17.3327 9.33268 14.666 12.666 14.666C16.1327 14.666 15.866 17.3327 19.3327 17.3327C22.666 17.3327 22.666 14.666 25.9993 14.666C27.7327 14.666 28.5327 15.3327 29.3327 15.9993M2.66602 23.9993C3.46602 24.666 4.26602 25.3327 5.99935 25.3327C9.33268 25.3327 9.33268 22.666 12.666 22.666C16.1327 22.666 15.866 25.3327 19.3327 25.3327C22.666 25.3327 22.666 22.666 25.9993 22.666C27.7327 22.666 28.5327 23.3327 29.3327 23.9993" stroke="#232230" stroke-width="2" stroke-linecap="round" stroke-linejoin="round"/>
</svg>
