<svg width="32" height="32" viewBox="0 0 32 32" fill="none" xmlns="http://www.w3.org/2000/svg">
<path d="M18.667 5.46712L16.0003 8.00046M6.80026 10.6669L2.93359 9.60026M8.00029 16.0003L5.46696 18.667M9.60026 2.93359L10.6669 6.80026M12.0497 12.9202C11.998 12.7984 11.9839 12.6639 12.0091 12.5341C12.0344 12.4042 12.0978 12.2848 12.1914 12.1912C12.285 12.0977 12.4043 12.0342 12.5342 12.0089C12.6641 11.9837 12.7986 11.9978 12.9204 12.0495L27.587 18.0495C27.7176 18.1031 27.8277 18.1967 27.9017 18.3168C27.9757 18.437 28.0096 18.5775 27.9987 18.7181C27.9877 18.8588 27.9324 18.9924 27.8407 19.0996C27.749 19.2068 27.6256 19.2822 27.4884 19.3149L21.6897 20.7029C21.4503 20.76 21.2314 20.8824 21.0573 21.0563C20.8831 21.2302 20.7605 21.4489 20.703 21.6882L19.3164 27.4882C19.2841 27.6259 19.2088 27.7498 19.1014 27.8419C18.994 27.934 18.8601 27.9896 18.7191 28.0006C18.5781 28.0115 18.4372 27.9774 18.3168 27.903C18.1965 27.8286 18.103 27.7179 18.0497 27.5869L12.0497 12.9202Z" stroke="#232230" stroke-width="2" stroke-linecap="round" stroke-linejoin="round"/>
</svg>
