<svg width="32" height="32" viewBox="0 0 32 32" fill="none" xmlns="http://www.w3.org/2000/svg">
<path d="M11.9993 26.6668H5.33268C4.62544 26.6668 3.94716 26.3858 3.44706 25.8857C2.94697 25.3856 2.66602 24.7074 2.66602 24.0001V6.66679C2.66602 5.95955 2.94697 5.28127 3.44706 4.78118C3.94716 4.28108 4.62544 4.00013 5.33268 4.00013H10.5327C10.9787 3.99576 11.4186 4.10331 11.8123 4.31295C12.2059 4.5226 12.5407 4.82763 12.786 5.20013L13.866 6.80013C14.1088 7.16883 14.4394 7.47149 14.828 7.68093C15.2167 7.89038 15.6512 8.00006 16.0927 8.00013H26.666C27.3733 8.00013 28.0515 8.28108 28.5516 8.78118C29.0517 9.28127 29.3327 9.95955 29.3327 10.6668V17.3335M17.3327 18.6667C18.8054 18.6667 19.9993 17.4728 19.9993 16C19.9993 14.5272 18.8054 13.3333 17.3327 13.3333C15.8599 13.3333 14.666 14.5272 14.666 16C14.666 17.4728 15.8599 18.6667 17.3327 18.6667ZM17.3327 18.6667C17.3327 22.4 20.266 25.3333 23.9993 25.3333M17.3327 18.6667V29.3333M23.9993 25.3333C23.9993 26.8061 25.1933 28 26.666 28C28.1388 28 29.3327 26.8061 29.3327 25.3333C29.3327 23.8606 28.1388 22.6667 26.666 22.6667C25.1933 22.6667 23.9993 23.8606 23.9993 25.3333Z" stroke="#232230" stroke-width="2" stroke-linecap="round" stroke-linejoin="round"/>
</svg>
