<svg width="32" height="32" viewBox="0 0 32 32" fill="none" xmlns="http://www.w3.org/2000/svg">
<path d="M13.334 2.66602H18.6673M16.0007 18.666V13.3327M5.33398 17.3327C5.66047 14.7406 6.92686 12.3586 8.89298 10.6382C10.8591 8.91785 13.3882 7.97887 16.0007 7.99935C17.726 8.00119 19.4252 8.42154 20.9525 9.22437C22.4797 10.0272 23.7894 11.1885 24.7692 12.6087C25.749 14.0289 26.3697 15.6656 26.578 17.3784C26.7863 19.0912 26.5759 20.8289 25.9651 22.4425C25.3542 24.0562 24.361 25.4975 23.0707 26.643C21.7803 27.7884 20.2314 28.6038 18.5567 29.0191C16.8821 29.4344 15.1316 29.4372 13.4556 29.0274C11.7796 28.6176 10.228 27.8073 8.93398 26.666L5.33398 23.466M12.0007 22.666H5.33398V29.3327" stroke="#232230" stroke-width="2" stroke-linecap="round" stroke-linejoin="round"/>
</svg>
