<svg width="32" height="32" viewBox="0 0 32 32" fill="none" xmlns="http://www.w3.org/2000/svg">
<path d="M13.8669 29.1992C16.4305 29.6204 19.0614 29.2835 21.4362 28.2298C23.811 27.1762 25.8262 25.4516 27.2342 23.2682C28.6422 21.0847 29.3817 18.5375 29.3616 15.9395C29.3416 13.3415 28.563 10.806 27.1215 8.64453M18.0004 2.79929C15.4472 2.4094 12.8357 2.76945 10.4833 3.83569C8.13086 4.90193 6.13873 6.62847 4.749 8.8055C3.35926 10.9825 2.63174 13.5163 2.65483 16.099C2.67792 18.6817 3.45064 21.2021 4.87908 23.354M20.0003 15.9993C20.0003 18.2085 18.2095 19.9993 16.0003 19.9993C13.7912 19.9993 12.0003 18.2085 12.0003 15.9993C12.0003 13.7902 13.7912 11.9993 16.0003 11.9993C18.2095 11.9993 20.0003 13.7902 20.0003 15.9993ZM28.0003 6.66602C28.0003 8.13878 26.8064 9.33268 25.3337 9.33268C23.8609 9.33268 22.667 8.13878 22.667 6.66602C22.667 5.19326 23.8609 3.99935 25.3337 3.99935C26.8064 3.99935 28.0003 5.19326 28.0003 6.66602ZM9.33366 25.3327C9.33366 26.8054 8.13975 27.9993 6.66699 27.9993C5.19423 27.9993 4.00033 26.8054 4.00033 25.3327C4.00033 23.8599 5.19423 22.666 6.66699 22.666C8.13975 22.666 9.33366 23.8599 9.33366 25.3327Z" stroke="#232230" stroke-width="2" stroke-linecap="round" stroke-linejoin="round"/>
</svg>
