<svg width="32" height="32" viewBox="0 0 32 32" fill="none" xmlns="http://www.w3.org/2000/svg">
<path d="M13.3327 13.3333H18.666M25.3327 9.33333V5.33333C25.3327 4.97971 25.1922 4.64057 24.9422 4.39052C24.6921 4.14048 24.353 4 23.9993 4H21.3327C20.9791 4 20.6399 4.14048 20.3899 4.39052C20.1398 4.64057 19.9993 4.97971 19.9993 5.33333V9.33333M25.3327 9.33333C25.6863 9.33333 26.0254 9.47381 26.2755 9.72386C26.5255 9.97391 26.666 10.313 26.666 10.6667V13.76C26.666 16.2493 29.3327 18.3453 29.3327 20.1987V25.3333C29.3327 26.0406 29.0517 26.7189 28.5516 27.219C28.0515 27.719 27.3733 28 26.666 28H21.3327C20.6254 28 19.9472 27.719 19.4471 27.219C18.947 26.7189 18.666 26.0406 18.666 25.3333V10.6667C18.666 10.313 18.8065 9.97391 19.0565 9.72386C19.3066 9.47381 19.6457 9.33333 19.9993 9.33333M25.3327 9.33333H19.9993M29.3327 21.3333H2.66602M6.66602 9.33333C6.31239 9.33333 5.97326 9.47381 5.72321 9.72386C5.47316 9.97391 5.33268 10.313 5.33268 10.6667V13.76C5.33268 16.2493 2.66602 18.3453 2.66602 20.1987V25.3333C2.66602 26.0406 2.94697 26.7189 3.44706 27.219C3.94716 27.719 4.62544 28 5.33268 28H10.666C11.3733 28 12.0515 27.719 12.5516 27.219C13.0517 26.7189 13.3327 26.0406 13.3327 25.3333V10.6667C13.3327 10.313 13.1922 9.97391 12.9422 9.72386C12.6921 9.47381 12.353 9.33333 11.9993 9.33333M6.66602 9.33333H11.9993M6.66602 9.33333V5.33333C6.66602 4.97971 6.80649 4.64057 7.05654 4.39052C7.30659 4.14048 7.64573 4 7.99935 4H10.666C11.0196 4 11.3588 4.14048 11.6088 4.39052C11.8589 4.64057 11.9993 4.97971 11.9993 5.33333V9.33333" stroke="#232230" stroke-width="2" stroke-linecap="round" stroke-linejoin="round"/>
</svg>
