<svg width="32" height="32" viewBox="0 0 32 32" fill="none" xmlns="http://www.w3.org/2000/svg">
<path d="M8 26.6673H13.3333M18.6667 13.334H24M8 18.6673H10.6667V26.6673M18.6667 5.33398H21.3333V13.334M21.3333 18.6673C22.8061 18.6673 24 19.8612 24 21.334V24.0007C24 25.4734 22.8061 26.6673 21.3333 26.6673C19.8606 26.6673 18.6667 25.4734 18.6667 24.0007V21.334C18.6667 19.8612 19.8606 18.6673 21.3333 18.6673ZM10.6667 5.33398C12.1394 5.33398 13.3333 6.52789 13.3333 8.00065V10.6673C13.3333 12.1401 12.1394 13.334 10.6667 13.334C9.19391 13.334 8 12.1401 8 10.6673V8.00065C8 6.52789 9.19391 5.33398 10.6667 5.33398Z" stroke="#232230" stroke-width="2" stroke-linecap="round" stroke-linejoin="round"/>
</svg>
