<svg width="32" height="32" viewBox="0 0 32 32" fill="none" xmlns="http://www.w3.org/2000/svg">
<path d="M20 7.68494C19.5862 7.68494 19.1781 7.58865 18.808 7.4037L13.192 4.5957C12.8219 4.41074 12.4138 4.31445 12 4.31445M20 7.68494C20.4138 7.68494 20.8219 7.58865 21.192 7.4037L26.0707 4.9637C26.2741 4.86204 26.5002 4.81411 26.7273 4.82445C26.9545 4.8348 27.1753 4.90308 27.3686 5.0228C27.562 5.14253 27.7215 5.30971 27.832 5.50847C27.9425 5.70723 28.0003 5.93095 28 6.15836V23.177C27.9999 23.4246 27.9308 23.6672 27.8006 23.8777C27.6704 24.0883 27.4841 24.2584 27.2627 24.369L21.192 27.405C20.8219 27.59 20.4138 27.6863 20 27.6863C19.5862 27.6863 19.1781 27.59 18.808 27.405L13.192 24.597C12.8219 24.4121 12.4138 24.3158 12 24.3158C11.5862 24.3158 11.1781 24.4121 10.808 24.597L5.92934 27.037C5.72581 27.1387 5.49964 27.1867 5.27235 27.1763C5.04506 27.1658 4.82421 27.0975 4.63083 26.9776C4.43744 26.8577 4.27795 26.6903 4.16753 26.4914C4.05711 26.2924 3.99944 26.0686 4 25.841V8.8237C4.00014 8.57615 4.06918 8.33352 4.19941 8.12299C4.32963 7.91247 4.5159 7.74235 4.73734 7.6317L10.808 4.5957C11.1781 4.41074 11.5862 4.31445 12 4.31445M20 7.68494L20 27.6849M12 4.31445L12 24.3145" stroke="#232230" stroke-width="2" stroke-linecap="round" stroke-linejoin="round"/>
</svg>
