<svg width="32" height="32" viewBox="0 0 32 32" fill="none" xmlns="http://www.w3.org/2000/svg">
<path d="M9.33333 14.666V9.33268C9.33333 7.56457 10.0357 5.86888 11.286 4.61864C12.5362 3.36839 14.2319 2.66602 16 2.66602C17.7681 2.66602 19.4638 3.36839 20.714 4.61864C21.9643 5.86888 22.6667 7.56457 22.6667 9.33268V14.666M6.66667 14.666H25.3333C26.8061 14.666 28 15.8599 28 17.3327V26.666C28 28.1388 26.8061 29.3327 25.3333 29.3327H6.66667C5.19391 29.3327 4 28.1388 4 26.666V17.3327C4 15.8599 5.19391 14.666 6.66667 14.666Z" stroke="#232230" stroke-width="2" stroke-linecap="round" stroke-linejoin="round"/>
</svg>
