<svg width="32" height="32" viewBox="0 0 32 32" fill="none" xmlns="http://www.w3.org/2000/svg">
<path d="M15.9993 6.66667C17.9993 4.66667 19.6527 4 21.9993 4C23.9443 4 25.8095 4.77262 27.1848 6.14788C28.5601 7.52315 29.3327 9.38841 29.3327 11.3333C29.3327 14.3867 27.3193 16.72 25.3327 18.6667L15.9993 28L6.66602 18.6667C4.66602 16.7333 2.66602 14.4 2.66602 11.3333C2.66602 9.38841 3.43863 7.52315 4.8139 6.14788C6.18917 4.77262 8.05443 4 9.99935 4C12.346 4 13.9993 4.66667 15.9993 6.66667ZM15.9993 6.66667L12.0528 10.6133C11.7819 10.8823 11.5669 11.2022 11.4202 11.5546C11.2735 11.907 11.1979 12.2849 11.1979 12.6667C11.1979 13.0484 11.2735 13.4264 11.4202 13.7788C11.5669 14.1312 11.7819 14.4511 12.0528 14.72C13.1462 15.8133 14.8928 15.8533 16.0528 14.8133L18.8128 12.28C19.5046 11.6523 20.4053 11.3045 21.3395 11.3045C22.2736 11.3045 23.1743 11.6523 23.8662 12.28L27.8128 15.8267M23.9993 20L21.3327 17.3333M19.9993 24L17.3327 21.3333" stroke="#232230" stroke-width="2" stroke-linecap="round" stroke-linejoin="round"/>
</svg>
