<svg width="32" height="32" viewBox="0 0 32 32" fill="none" xmlns="http://www.w3.org/2000/svg">
<path d="M15.9993 25.334L10.706 28.5073C10.2913 28.7565 9.81653 28.8881 9.33268 28.8881C8.84883 28.8881 8.3741 28.7565 7.95935 28.5073L3.95935 26.1073C3.56569 25.8708 3.23979 25.5366 3.0132 25.1372C2.78661 24.7378 2.66702 24.2866 2.66602 23.8273V19.5073C2.66702 19.0481 2.78661 18.5969 3.0132 18.1974C3.23979 17.798 3.56569 17.4638 3.95935 17.2273L9.33268 14.0007M15.9993 25.334V18.0007M15.9993 25.334L21.2927 28.5073C21.7074 28.7565 22.1822 28.8881 22.666 28.8881C23.1499 28.8881 23.6246 28.7565 24.0393 28.5073L28.0393 26.1073C28.433 25.8708 28.7589 25.5366 28.9855 25.1372C29.2121 24.7378 29.3317 24.2866 29.3327 23.8273V19.5073C29.3317 19.0481 29.2121 18.5969 28.9855 18.1974C28.7589 17.798 28.433 17.4638 28.0393 17.2273L22.666 14.0007M15.9993 18.0007L9.33268 14.0007M15.9993 18.0007L9.33269 22.0005M15.9993 18.0007L22.666 14.0007M15.9993 18.0007L22.666 22.0007M15.9993 18.0007L15.9994 10.6672M9.33268 14.0007V8.17411C9.33369 7.71487 9.45328 7.26367 9.67987 6.86423C9.90645 6.46478 10.2324 6.13061 10.626 5.89411L14.626 3.49411C15.0408 3.24492 15.5155 3.11328 15.9993 3.11328C16.4832 3.11328 16.9579 3.24492 17.3727 3.49411L21.3727 5.89411C21.7663 6.13061 22.0922 6.46478 22.3188 6.86423C22.5454 7.26367 22.665 7.71487 22.666 8.17411V14.0007M9.33269 22.0005L3.0127 18.2005M9.33269 22.0005L9.33268 28.894M22.666 22.0007L28.986 18.2005M22.666 22.0007V28.894M15.9994 10.6672L9.67936 6.86719M15.9994 10.6672L22.3193 6.86719" stroke="#232230" stroke-width="2" stroke-linecap="round" stroke-linejoin="round"/>
</svg>
