<svg width="32" height="32" viewBox="0 0 32 32" fill="none" xmlns="http://www.w3.org/2000/svg">
<path d="M12.3994 8.26563C13.4422 9.03444 14.7038 9.44921 15.9994 9.44921C17.295 9.44921 18.5566 9.03444 19.5994 8.26563M10.5326 14.2656C11.7326 15.3323 13.7326 15.999 15.9992 15.999C18.2659 15.999 20.2659 15.3323 21.4659 14.2656M9.99935 16.2658L3.73268 19.8658C3.06602 20.2658 2.66602 20.7992 2.66602 21.3325C2.66602 21.8658 3.06602 22.3992 3.73268 22.7992L13.866 28.7992C15.066 29.4658 16.666 29.4658 17.866 28.7992L27.9993 22.7992C28.9327 22.3992 29.3327 21.8658 29.3327 21.3325C29.3327 20.7992 28.9327 20.2658 28.266 19.8658L21.9993 16.1325M18.5327 4.6658C18.4433 4.06747 18.146 3.51975 17.6929 3.11884C17.2399 2.71794 16.66 2.48946 16.0553 2.47355C15.4505 2.45763 14.8595 2.65529 14.386 3.03182C13.9125 3.40835 13.5867 3.93966 13.466 4.53246L9.46602 17.8658C9.33268 18.1325 9.33268 18.3991 9.33268 18.6658C9.33268 20.9325 12.266 22.6658 15.9993 22.6658C19.7327 22.6658 22.666 20.9325 22.666 18.6658C22.666 18.3991 22.666 18.1325 22.5327 17.9991L18.5327 4.6658Z" stroke="#232230" stroke-width="2" stroke-linecap="round" stroke-linejoin="round"/>
</svg>
