<svg width="32" height="32" viewBox="0 0 32 32" fill="none" xmlns="http://www.w3.org/2000/svg">
<path d="M4 6.66667C4 7.37391 4.28095 8.05219 4.78105 8.55229C5.28115 9.05238 5.95942 9.33333 6.66667 9.33333H10.6667M4 4V21.3333C4 22.0406 4.28095 22.7189 4.78105 23.219C5.28115 23.7191 5.95942 24 6.66667 24H10.6667M26.6667 13.3333C27.0203 13.3333 27.3594 13.1929 27.6095 12.9428C27.8595 12.6928 28 12.3536 28 12V8C28 7.64638 27.8595 7.30724 27.6095 7.05719C27.3594 6.80714 27.0203 6.66667 26.6667 6.66667H23.3333C23.1263 6.66667 22.9222 6.61847 22.737 6.5259C22.5519 6.43333 22.3909 6.29893 22.2667 6.13333L21.0667 4.53333C20.9425 4.36774 20.7814 4.23333 20.5963 4.14076C20.4111 4.04819 20.207 4 20 4H17.3333C16.9797 4 16.6406 4.14048 16.3905 4.39052C16.1405 4.64057 16 4.97971 16 5.33333V12C16 12.3536 16.1405 12.6928 16.3905 12.9428C16.6406 13.1929 16.9797 13.3333 17.3333 13.3333H26.6667ZM26.6667 28C27.0203 28 27.3594 27.8595 27.6095 27.6095C27.8595 27.3594 28 27.0203 28 26.6667V22.6667C28 22.3131 27.8595 21.9739 27.6095 21.7239C27.3594 21.4738 27.0203 21.3333 26.6667 21.3333H22.8C22.5561 21.3302 22.3177 21.2601 22.1108 21.1308C21.9039 21.0015 21.7364 20.8179 21.6267 20.6L21.0667 19.4667C20.9626 19.2282 20.791 19.0253 20.573 18.8832C20.355 18.741 20.1002 18.6658 19.84 18.6667H17.3333C16.9797 18.6667 16.6406 18.8072 16.3905 19.0572C16.1405 19.3072 16 19.6464 16 20V26.6667C16 27.0203 16.1405 27.3594 16.3905 27.6095C16.6406 27.8595 16.9797 28 17.3333 28H26.6667Z" stroke="#232230" stroke-width="2" stroke-linecap="round" stroke-linejoin="round"/>
</svg>
