<svg width="32" height="32" viewBox="0 0 32 32" fill="none" xmlns="http://www.w3.org/2000/svg">
<path d="M20.636 17.1859L22.656 28.5539C22.6786 28.6877 22.6598 28.8253 22.6022 28.9482C22.5445 29.0711 22.4507 29.1735 22.3332 29.2416C22.2158 29.3097 22.0804 29.3404 21.9451 29.3295C21.8097 29.3186 21.681 29.2666 21.576 29.1805L16.8027 25.5979C16.5722 25.4257 16.2923 25.3327 16.0047 25.3327C15.717 25.3327 15.4371 25.4257 15.2067 25.5979L10.4253 29.1792C10.3204 29.2651 10.1918 29.317 10.0567 29.3279C9.9215 29.3389 9.78622 29.3083 9.66888 29.2404C9.55153 29.1724 9.45769 29.0703 9.39989 28.9477C9.34208 28.825 9.32304 28.6876 9.34533 28.5539L11.364 17.1859M24 10.666C24 15.0843 20.4183 18.666 16 18.666C11.5817 18.666 8 15.0843 8 10.666C8 6.24774 11.5817 2.66602 16 2.66602C20.4183 2.66602 24 6.24774 24 10.666Z" stroke="#232230" stroke-width="2" stroke-linecap="round" stroke-linejoin="round"/>
</svg>
