<svg width="32" height="32" viewBox="0 0 32 32" fill="none" xmlns="http://www.w3.org/2000/svg">
<path d="M18.6663 9.33268L22.6663 13.3327M6.66634 7.99935V13.3327M25.333 18.666V23.9993M13.333 2.66602V5.33268M9.33301 10.666H3.99967M27.9997 21.3327H22.6663M14.6663 3.99935H11.9997M28.8531 4.85274L27.1464 3.14608C26.9964 2.9945 26.8178 2.87417 26.621 2.79205C26.4242 2.70993 26.213 2.66764 25.9997 2.66764C25.7865 2.66764 25.5753 2.70993 25.3785 2.79205C25.1817 2.87417 25.0031 2.9945 24.8531 3.14608L3.1464 24.8527C2.99482 25.0028 2.87449 25.1814 2.79237 25.3782C2.71025 25.575 2.66797 25.7861 2.66797 25.9994C2.66797 26.2127 2.71025 26.4238 2.79237 26.6206C2.87449 26.8175 2.99482 26.9961 3.1464 27.1461L4.85307 28.8527C5.00216 29.006 5.18045 29.1277 5.37739 29.2109C5.57434 29.294 5.78595 29.3369 5.99973 29.3369C6.21352 29.3369 6.42513 29.294 6.62208 29.2109C6.81902 29.1277 6.99731 29.006 7.1464 28.8527L28.8531 7.14608C29.0063 6.99698 29.1281 6.8187 29.2112 6.62175C29.2944 6.4248 29.3372 6.21319 29.3372 5.99941C29.3372 5.78563 29.2944 5.57401 29.2112 5.37707C29.1281 5.18012 29.0063 5.00184 28.8531 4.85274Z" stroke="#232230" stroke-width="2" stroke-linecap="round" stroke-linejoin="round"/>
</svg>
