<svg width="32" height="32" viewBox="0 0 32 32" fill="none" xmlns="http://www.w3.org/2000/svg">
<path d="M15.9993 29.3327V10.666M15.9993 29.3327C12.4631 29.3327 9.07174 27.9279 6.57126 25.4274C4.07077 22.927 2.66602 19.5356 2.66602 15.9993H6.66602M15.9993 29.3327C19.5356 29.3327 22.927 27.9279 25.4274 25.4274C27.9279 22.927 29.3327 19.5356 29.3327 15.9993H25.3327M15.9993 10.666C18.2085 10.666 19.9993 8.87515 19.9993 6.66602C19.9993 4.45688 18.2085 2.66602 15.9993 2.66602C13.7902 2.66602 11.9993 4.45688 11.9993 6.66602C11.9993 8.87515 13.7902 10.666 15.9993 10.666Z" stroke="#232230" stroke-width="2" stroke-linecap="round" stroke-linejoin="round"/>
</svg>
