<svg width="32" height="32" viewBox="0 0 32 32" fill="none" xmlns="http://www.w3.org/2000/svg">
<path d="M29.3327 15.9993H26.026C25.4433 15.9981 24.8762 16.1878 24.4115 16.5393C23.9468 16.8909 23.61 17.3849 23.4527 17.946L20.3193 29.0927C20.2992 29.1619 20.257 29.2227 20.1993 29.266C20.1416 29.3093 20.0715 29.3327 19.9993 29.3327C19.9272 29.3327 19.857 29.3093 19.7993 29.266C19.7416 29.2227 19.6995 29.1619 19.6793 29.0927L12.3193 2.90602C12.2992 2.83678 12.257 2.77596 12.1993 2.73268C12.1416 2.68941 12.0715 2.66602 11.9993 2.66602C11.9272 2.66602 11.857 2.68941 11.7993 2.73268C11.7416 2.77596 11.6995 2.83678 11.6793 2.90602L8.54601 14.0527C8.3893 14.6116 8.05452 15.104 7.5925 15.4554C7.13048 15.8067 6.56644 15.9977 5.98601 15.9993H2.66602" stroke="#232230" stroke-width="2" stroke-linecap="round" stroke-linejoin="round"/>
</svg>
