<svg width="32" height="32" viewBox="0 0 32 32" fill="none" xmlns="http://www.w3.org/2000/svg">
<path d="M18.666 18.666V21.3327M18.666 26.666V29.3327M18.666 2.66602V5.33268M18.666 10.666V13.3327M2.66602 19.9993H13.3327M2.66602 3.99935H10.666C11.3733 3.99935 12.0515 4.2803 12.5516 4.7804C13.0517 5.28049 13.3327 5.95877 13.3327 6.66602V25.3327C13.3327 26.0399 13.0517 26.7182 12.5516 27.2183C12.0515 27.7184 11.3733 27.9993 10.666 27.9993H2.66602M2.66602 11.9993H13.3327M29.3327 19.9993H23.9993M29.3327 3.99935H26.666C25.9588 3.99935 25.2805 4.2803 24.7804 4.7804C24.2803 5.28049 23.9993 5.95877 23.9993 6.66602V25.3327C23.9993 26.0399 24.2803 26.7182 24.7804 27.2183C25.2805 27.7184 25.9588 27.9993 26.666 27.9993H29.3327M29.3327 11.9993H23.9993M6.66602 3.99935V27.9993" stroke="#232230" stroke-width="2" stroke-linecap="round" stroke-linejoin="round"/>
</svg>
