<svg width="32" height="32" viewBox="0 0 32 32" fill="none" xmlns="http://www.w3.org/2000/svg">
<path d="M15.9993 13.3327C15.2921 13.3327 14.6138 13.6136 14.1137 14.1137C13.6136 14.6138 13.3327 15.2921 13.3327 15.9993C13.3327 17.3593 13.1993 19.346 12.986 21.3327M18.666 17.4928C18.666 20.6662 18.666 25.9995 17.3327 29.3328M23.0527 28.026C23.2127 27.226 23.6261 24.9593 23.7194 23.9993M2.66602 15.9993C2.66602 13.2009 3.54651 10.4734 5.18279 8.20321C6.81906 5.93301 9.12815 4.23518 11.783 3.35024C14.4378 2.4653 17.3038 2.4381 19.9749 3.2725C22.6461 4.1069 24.987 5.7606 26.666 7.99935M2.66602 21.3327H2.67935M29.0661 21.3327C29.3327 18.666 29.2407 14.194 29.0661 13.3327M6.66602 25.9993C7.33268 23.9993 7.99935 19.9993 7.99935 15.9993C7.998 15.0912 8.1513 14.1894 8.45268 13.3327M11.5327 29.3327C11.8127 28.4527 12.1327 27.5727 12.2927 26.666M11.9993 9.06594C13.2159 8.36357 14.5959 7.99392 16.0006 7.99414C17.4054 7.99437 18.7853 8.36447 20.0016 9.06722C21.2179 9.76997 22.2277 10.7806 22.9295 11.9975C23.6313 13.2143 24.0003 14.5945 23.9993 15.9993V18.6659" stroke="#232230" stroke-width="2" stroke-linecap="round" stroke-linejoin="round"/>
</svg>
