<svg width="32" height="32" viewBox="0 0 32 32" fill="none" xmlns="http://www.w3.org/2000/svg">
<path d="M7.99935 16H5.33268C4.62544 16 3.94716 15.719 3.44706 15.219C2.94697 14.7189 2.66602 14.0406 2.66602 13.3333V6.66667C2.66602 5.95942 2.94697 5.28115 3.44706 4.78105C3.94716 4.28095 4.62544 4 5.33268 4H26.666C27.3733 4 28.0515 4.28095 28.5516 4.78105C29.0517 5.28115 29.3327 5.95942 29.3327 6.66667V13.3333C29.3327 14.0406 29.0517 14.7189 28.5516 15.219C28.0515 15.719 27.3733 16 26.666 16H23.9993M7.99935 10.6667H23.9993M24.3993 23.6C24.9635 24.1898 25.2916 24.9662 25.3215 25.7818C25.3514 26.5975 25.081 27.3958 24.5616 28.0253C24.0421 28.6549 23.3098 29.072 22.5033 29.1976C21.6968 29.3232 20.8723 29.1485 20.186 28.7067C19.7398 28.4141 19.3694 28.0198 19.1051 27.5562C18.8409 27.0927 18.6904 26.573 18.666 26.04V16M8.79941 20.8C8.48435 21.1089 8.25086 21.4912 8.11988 21.9125C7.9889 22.3339 7.96451 22.7811 8.04891 23.2142C8.13331 23.6473 8.32385 24.0527 8.60346 24.394C8.88307 24.7353 9.24301 25.0019 9.65101 25.1699C10.059 25.3379 10.5023 25.4021 10.9412 25.3566C11.3801 25.3111 11.8008 25.1574 12.1657 24.9093C12.5306 24.6613 12.8282 24.3265 13.0319 23.9351C13.2356 23.5437 13.3389 23.1079 13.3327 22.6667V16" stroke="#232230" stroke-width="2" stroke-linecap="round" stroke-linejoin="round"/>
</svg>
