<svg width="32" height="32" viewBox="0 0 32 32" fill="none" xmlns="http://www.w3.org/2000/svg">
<path d="M20.666 9.99935L23.7327 13.066C23.9819 13.3103 24.317 13.4472 24.666 13.4472C25.015 13.4472 25.3501 13.3103 25.5994 13.066L28.3993 10.266C28.6437 10.0168 28.7805 9.68169 28.7805 9.33268C28.7805 8.98368 28.6437 8.64859 28.3993 8.39935L25.3327 5.33268M27.9992 2.66602L15.1992 15.466M17.3327 20.666C17.3327 24.7161 14.0494 27.9993 9.99935 27.9993C5.94926 27.9993 2.66602 24.7161 2.66602 20.666C2.66602 16.6159 5.94926 13.3327 9.99935 13.3327C14.0494 13.3327 17.3327 16.6159 17.3327 20.666Z" stroke="#232230" stroke-width="2" stroke-linecap="round" stroke-linejoin="round"/>
</svg>
