<svg width="32" height="32" viewBox="0 0 32 32" fill="none" xmlns="http://www.w3.org/2000/svg">
<path d="M21.3343 22.666H26.6676M5.33431 17.3327H10.6676M5.33419 21.3327V18.1593C5.33419 15.3327 3.96086 13.9993 4.00086 10.666C4.04086 7.03935 5.98752 2.66602 10.0009 2.66602C12.4942 2.66602 13.3342 5.06602 13.3342 7.33268C13.3342 11.4793 10.6675 14.8793 10.6675 18.906V21.3327C10.6675 22.0399 10.3866 22.7182 9.88647 23.2183C9.38638 23.7184 8.7081 23.9993 8.00086 23.9993C7.29361 23.9993 6.61534 23.7184 6.11524 23.2183C5.61514 22.7182 5.33419 22.0399 5.33419 21.3327ZM26.6676 26.666V23.4927C26.6676 20.666 28.041 19.3327 28.001 15.9993C27.961 12.3727 26.0143 7.99935 22.001 7.99935C19.5076 7.99935 18.6676 10.3993 18.6676 12.666C18.6676 16.8127 21.3343 20.2127 21.3343 24.2393V26.666C21.3343 27.3733 21.6153 28.0515 22.1154 28.5516C22.6155 29.0517 23.2937 29.3327 24.001 29.3327C24.7082 29.3327 25.3865 29.0517 25.8866 28.5516C26.3867 28.0515 26.6676 27.3733 26.6676 26.666Z" stroke="#232230" stroke-width="2" stroke-linecap="round" stroke-linejoin="round"/>
</svg>
