<svg width="32" height="32" viewBox="0 0 32 32" fill="none" xmlns="http://www.w3.org/2000/svg">
<path d="M15.9997 2.66602V29.3327M3.33302 22.5061C3.17465 22.4137 3.03706 22.2896 2.92884 22.1415C2.82062 21.9935 2.7441 21.8247 2.70406 21.6458C2.66401 21.4669 2.66131 21.2816 2.69612 21.1015C2.73092 20.9215 2.80249 20.7506 2.90635 20.5995L14.9063 3.23945C15.0292 3.06341 15.1928 2.91965 15.3831 2.82038C15.5735 2.72111 15.785 2.66927 15.9997 2.66927C16.2144 2.66927 16.4259 2.72111 16.6162 2.82038C16.8066 2.91965 16.9701 3.06341 17.093 3.23945L29.093 20.5861C29.1991 20.7377 29.2725 20.9096 29.3085 21.0911C29.3446 21.2725 29.3425 21.4595 29.3023 21.64C29.2622 21.8206 29.1849 21.9909 29.0754 22.14C28.966 22.2891 28.8266 22.4138 28.6663 22.5061L17.3197 28.9861C16.9175 29.2152 16.4626 29.3357 15.9997 29.3357C15.5368 29.3357 15.0819 29.2152 14.6797 28.9861L3.33302 22.5061Z" stroke="#232230" stroke-width="2" stroke-linecap="round" stroke-linejoin="round"/>
</svg>
