<svg width="32" height="32" viewBox="0 0 32 32" fill="none" xmlns="http://www.w3.org/2000/svg">
<path d="M15 26.5C15 27.0523 15.4477 27.5 16 27.5C16.5522 27.5 17 27.0523 17 26.5H16H15ZM27.5065 12.5831L28.4652 12.2988V12.2988L27.5065 12.5831ZM15.9999 22.5999L15.3433 23.3542C15.7197 23.6819 16.28 23.6819 16.6564 23.3542L15.9999 22.5999ZM15.9999 14.8L15.3376 15.5493L15.9999 16.1346L16.6621 15.5493L15.9999 14.8ZM7.62941 7.40151L6.93181 6.68503C6.73247 6.87911 6.623 7.14747 6.6297 7.42561C6.63641 7.70375 6.75868 7.96652 6.96715 8.15078L7.62941 7.40151ZM4.4934 12.5832L5.15 11.829C4.89336 11.6055 4.54074 11.528 4.21404 11.623C3.88733 11.7181 3.63137 11.9727 3.53465 12.2989L4.4934 12.5832ZM25.2922 21.8896C24.9961 22.3558 25.1339 22.9738 25.6001 23.2699C26.0662 23.5661 26.6842 23.4282 26.9804 22.9621L26.1363 22.4258L25.2922 21.8896ZM20.8412 28.0684C21.3537 27.8626 21.6024 27.2803 21.3966 26.7678C21.1908 26.2553 20.6085 26.0066 20.096 26.2124L20.4686 27.1404L20.8412 28.0684ZM15 7C15 7.55228 15.4477 8 16 8C16.5522 8 17 7.55228 17 7H16H15ZM16 14.5H15V26.5H16H17V14.5H16ZM16 28V27C9.92483 27 4.99996 22.0751 4.99996 16H3.99996H2.99996C2.99996 23.1797 8.82026 29 16 29V28ZM27.5065 12.5831L26.8499 11.8289L15.3433 21.8457L15.9999 22.5999L16.6564 23.3542L28.1631 13.3374L27.5065 12.5831ZM27.5065 12.5831L26.5478 12.8674C26.8418 13.859 27 14.9102 27 16H28H29C29 14.7156 28.8134 13.4731 28.4652 12.2988L27.5065 12.5831ZM16 4V5C18.9847 5 21.6901 6.18744 23.6728 8.1179L24.3704 7.40141L25.068 6.68491C22.7269 4.40559 19.5266 3 16 3V4ZM24.3704 7.40141L23.6728 8.1179C25.0037 9.41365 26.0066 11.0422 26.5478 12.8674L27.5065 12.5831L28.4652 12.2988C27.8246 10.1382 26.6385 8.214 25.068 6.68491L24.3704 7.40141ZM15.9999 14.8L16.6621 15.5493L25.0327 8.15067L24.3704 7.40141L23.7081 6.65214L15.3376 14.0507L15.9999 14.8ZM7.62941 7.40151L6.96715 8.15078L15.3376 15.5493L15.9999 14.8L16.6621 14.0507L8.29168 6.65224L7.62941 7.40151ZM7.62941 7.40151L8.32702 8.11799C10.3098 6.18748 13.0152 5 16 5V4V3C12.4733 3 9.27287 4.40564 6.93181 6.68503L7.62941 7.40151ZM3.99996 16H4.99996C4.99996 14.9102 5.15815 13.8591 5.45215 12.8675L4.4934 12.5832L3.53465 12.2989C3.18651 13.4731 2.99996 14.7157 2.99996 16H3.99996ZM4.4934 12.5832L3.83681 13.3374L15.3433 23.3542L15.9999 22.5999L16.6564 21.8457L5.15 11.829L4.4934 12.5832ZM28 16H27C27 18.1684 26.3736 20.1874 25.2922 21.8896L26.1363 22.4258L26.9804 22.9621C28.2594 20.9488 29 18.5593 29 16H28ZM20.4686 27.1404L20.096 26.2124C18.8314 26.7201 17.4496 27 16 27V28V29C17.7091 29 19.3436 28.6696 20.8412 28.0684L20.4686 27.1404ZM16 4H15V7H16H17V4H16Z" fill="#232230"/>
</svg>
