<svg width="32" height="32" viewBox="0 0 32 32" fill="none" xmlns="http://www.w3.org/2000/svg">
<path d="M4 9.33333V6.66667C4 5.95942 4.28095 5.28115 4.78105 4.78105C5.28115 4.28095 5.95942 4 6.66667 4H9.33333M22.6667 4H25.3333C26.0406 4 26.7189 4.28095 27.219 4.78105C27.719 5.28115 28 5.95942 28 6.66667V9.33333M28 22.6667V25.3333C28 26.0406 27.719 26.7189 27.219 27.219C26.7189 27.719 26.0406 28 25.3333 28H22.6667M9.33333 28H6.66667C5.95942 28 5.28115 27.719 4.78105 27.219C4.28095 26.7189 4 26.0406 4 25.3333V22.6667M17.3333 16C17.3333 16.7364 16.7364 17.3333 16 17.3333C15.2636 17.3333 14.6667 16.7364 14.6667 16C14.6667 15.2636 15.2636 14.6667 16 14.6667C16.7364 14.6667 17.3333 15.2636 17.3333 16ZM25.2587 16.44C25.3583 16.1552 25.3583 15.8449 25.2587 15.56C24.508 13.7206 23.2264 12.1465 21.5774 11.0384C19.9284 9.93032 17.9867 9.33854 16 9.33854C14.0133 9.33854 12.0716 9.93032 10.4226 11.0384C8.77361 12.1465 7.49204 13.7206 6.74136 15.56C6.64177 15.8449 6.64177 16.1552 6.74136 16.44C7.49204 18.2795 8.77361 19.8536 10.4226 20.9617C12.0716 22.0698 14.0133 22.6615 16 22.6615C17.9867 22.6615 19.9284 22.0698 21.5774 20.9617C23.2264 19.8536 24.508 18.2795 25.2587 16.44Z" stroke="#232230" stroke-width="2" stroke-linecap="round" stroke-linejoin="round"/>
</svg>
