<svg width="32" height="32" viewBox="0 0 32 32" fill="none" xmlns="http://www.w3.org/2000/svg">
<path d="M16.6673 22.6657L16.0007 21.3324L15.334 22.6657H16.6673Z" stroke="#232230" stroke-width="2" stroke-linecap="round" stroke-linejoin="round"/>
<path d="M20.0007 29.3322C20.3543 29.3322 20.6934 29.1917 20.9435 28.9417C21.1935 28.6916 21.334 28.3525 21.334 27.9989V26.6655C21.8362 26.6652 22.3282 26.5231 22.7532 26.2554C23.1782 25.9878 23.519 25.6056 23.7364 25.1528C23.9537 24.7 24.0388 24.195 23.9817 23.696C23.9247 23.197 23.7279 22.7243 23.414 22.3322C24.942 20.8553 25.9939 18.9556 26.435 16.8768C26.8761 14.798 26.6862 12.6348 25.8897 10.6646C25.0931 8.69444 23.7263 7.00711 21.9643 5.81898C20.2024 4.63086 18.1257 3.99609 16.0007 3.99609C13.8756 3.99609 11.7989 4.63086 10.037 5.81898C8.27506 7.00711 6.90819 8.69444 6.11164 10.6646C5.3151 12.6348 5.1252 14.798 5.56629 16.8768C6.00738 18.9556 7.05936 20.8553 8.58732 22.3322C8.27341 22.7243 8.07661 23.197 8.01957 23.696C7.96253 24.195 8.04758 24.7 8.26493 25.1528C8.48227 25.6056 8.82307 25.9878 9.24809 26.2554C9.67311 26.5231 10.1651 26.6652 10.6673 26.6655V27.9989C10.6673 28.3525 10.8078 28.6916 11.0578 28.9417C11.3079 29.1917 11.647 29.3322 12.0007 29.3322H20.0007Z" stroke="#232230" stroke-width="2" stroke-linecap="round" stroke-linejoin="round"/>
<path d="M20.0007 17.3324C20.737 17.3324 21.334 16.7354 21.334 15.999C21.334 15.2626 20.737 14.6657 20.0007 14.6657C19.2643 14.6657 18.6673 15.2626 18.6673 15.999C18.6673 16.7354 19.2643 17.3324 20.0007 17.3324Z" stroke="#232230" stroke-width="2" stroke-linecap="round" stroke-linejoin="round"/>
<path d="M12.0007 17.3324C12.737 17.3324 13.334 16.7354 13.334 15.999C13.334 15.2626 12.737 14.6657 12.0007 14.6657C11.2643 14.6657 10.6673 15.2626 10.6673 15.999C10.6673 16.7354 11.2643 17.3324 12.0007 17.3324Z" stroke="#232230" stroke-width="2" stroke-linecap="round" stroke-linejoin="round"/>
</svg>
