<svg width="32" height="32" viewBox="0 0 32 32" fill="none" xmlns="http://www.w3.org/2000/svg">
<path d="M14.666 15.08C16.226 15.8267 16.7193 17.3333 19.3327 17.3333C22.666 17.3333 22.666 14.6667 25.9993 14.6667C27.7327 14.6667 28.5327 15.3333 29.3327 16M15.666 24C16.1327 24.6667 17.5993 25.3333 19.3327 25.3333C22.666 25.3333 22.666 22.6667 25.9993 22.6667C27.7327 22.6667 28.5327 23.3333 29.3327 24M2.66602 13.3333H7.99935M2.66602 18.6667H7.99935M2.66602 24H7.99935M2.66602 8H7.99935M9.33268 4C8.97906 4 8.63992 4.14048 8.38987 4.39052C8.13982 4.64057 7.99935 4.97971 7.99935 5.33333V26.6667C7.99935 27.0203 8.13982 27.3594 8.38987 27.6095C8.63992 27.8595 8.97906 28 9.33268 28H14.666C15.0196 28 15.3588 27.8595 15.6088 27.6095C15.8589 27.3594 15.9993 27.0203 15.9993 26.6667L13.3327 5.33333C13.3327 4.97971 13.1922 4.64057 12.9422 4.39052C12.6921 4.14048 12.353 4 11.9993 4H9.33268Z" stroke="#232230" stroke-width="2" stroke-linecap="round" stroke-linejoin="round"/>
</svg>
