<svg width="32" height="32" viewBox="0 0 32 32" fill="none" xmlns="http://www.w3.org/2000/svg">
<path d="M16 18.666C17.4728 18.666 18.6667 17.4721 18.6667 15.9993C18.6667 14.5266 17.4728 13.3327 16 13.3327C14.5272 13.3327 13.3333 14.5266 13.3333 15.9993C13.3333 17.4721 14.5272 18.666 16 18.666ZM16 18.666L12 29.3327M16 18.666L20 29.3327M16 2.66602V7.99935M9.06673 19.9993L4.40007 22.666M27.5999 9.33268L22.9333 11.9993M9.06673 11.9993L4.40007 9.33268M27.5999 22.666L22.9333 19.9993M10.6667 29.3327H21.3333M24 24.9326C25.8114 23.3123 27.0882 21.1803 27.6615 18.8186C28.2347 16.4569 28.0773 13.9767 27.2101 11.7064C26.3429 9.4361 24.8068 7.48259 22.8051 6.1044C20.8033 4.7262 18.4303 3.98828 16 3.98828C13.5697 3.98828 11.1967 4.7262 9.19495 6.1044C7.19321 7.48259 5.65712 9.4361 4.78993 11.7064C3.92275 13.9767 3.76535 16.4569 4.33856 18.8186C4.91176 21.1803 6.18856 23.3123 8 24.9326" stroke="#232230" stroke-width="2" stroke-linecap="round" stroke-linejoin="round"/>
</svg>
