<svg width="32" height="32" viewBox="0 0 32 32" fill="none" xmlns="http://www.w3.org/2000/svg">
<path d="M10.5332 10.5332L14.1332 14.1332M17.8665 14.1332L21.4665 10.5332M10.5332 21.4665L14.1332 17.8665M17.8665 17.8665L21.4665 21.4665M6.66667 4H25.3333C26.8061 4 28 5.19391 28 6.66667V25.3333C28 26.8061 26.8061 28 25.3333 28H6.66667C5.19391 28 4 26.8061 4 25.3333V6.66667C4 5.19391 5.19391 4 6.66667 4ZM10.6667 10C10.6667 10.3682 10.3682 10.6667 10 10.6667C9.63181 10.6667 9.33333 10.3682 9.33333 10C9.33333 9.63181 9.63181 9.33333 10 9.33333C10.3682 9.33333 10.6667 9.63181 10.6667 10ZM22.6667 10C22.6667 10.3682 22.3682 10.6667 22 10.6667C21.6318 10.6667 21.3333 10.3682 21.3333 10C21.3333 9.63181 21.6318 9.33333 22 9.33333C22.3682 9.33333 22.6667 9.63181 22.6667 10ZM10.6667 22C10.6667 22.3682 10.3682 22.6667 10 22.6667C9.63181 22.6667 9.33333 22.3682 9.33333 22C9.33333 21.6318 9.63181 21.3333 10 21.3333C10.3682 21.3333 10.6667 21.6318 10.6667 22ZM22.6667 22C22.6667 22.3682 22.3682 22.6667 22 22.6667C21.6318 22.6667 21.3333 22.3682 21.3333 22C21.3333 21.6318 21.6318 21.3333 22 21.3333C22.3682 21.3333 22.6667 21.6318 22.6667 22ZM18.6667 16C18.6667 17.4728 17.4728 18.6667 16 18.6667C14.5272 18.6667 13.3333 17.4728 13.3333 16C13.3333 14.5272 14.5272 13.3333 16 13.3333C17.4728 13.3333 18.6667 14.5272 18.6667 16Z" stroke="#232230" stroke-width="2" stroke-linecap="round" stroke-linejoin="round"/>
</svg>
