<svg width="32" height="32" viewBox="0 0 32 32" fill="none" xmlns="http://www.w3.org/2000/svg">
<path d="M9.33268 23.9993V15.9993C9.33268 14.2312 10.0351 12.5355 11.2853 11.2853C12.5355 10.0351 14.2312 9.33268 15.9993 9.33268C17.7675 9.33268 19.4632 10.0351 20.7134 11.2853C21.9636 12.5355 22.666 14.2312 22.666 15.9993V23.9993M9.33268 23.9993H22.666M9.33268 23.9993C8.62544 23.9993 7.94716 24.2803 7.44706 24.7804C6.94697 25.2805 6.66602 25.9588 6.66602 26.666V27.9993C6.66602 28.353 6.80649 28.6921 7.05654 28.9422C7.30659 29.1922 7.64573 29.3327 7.99935 29.3327H23.9993C24.353 29.3327 24.6921 29.1922 24.9422 28.9422C25.1922 28.6921 25.3327 28.353 25.3327 27.9993V26.666C25.3327 25.9588 25.0517 25.2805 24.5516 24.7804C24.0515 24.2803 23.3733 23.9993 22.666 23.9993M27.9993 15.9993H29.3327M24.666 5.99935L23.9993 6.66602M2.66602 15.9993H3.99935M15.9993 2.66602V3.99935M6.57129 6.57129L7.51396 7.51396M15.9993 15.9993V23.9993" stroke="#232230" stroke-width="2" stroke-linecap="round" stroke-linejoin="round"/>
</svg>
