<svg width="32" height="32" viewBox="0 0 32 32" fill="none" xmlns="http://www.w3.org/2000/svg">
<path d="M23.9993 16.6667V13.3333C23.9993 12.6261 23.7184 11.9478 23.2183 11.4477C22.7182 10.9476 22.0399 10.6667 21.3327 10.6667C20.6254 10.6667 19.9472 10.9476 19.4471 11.4477C18.947 11.9478 18.666 12.6261 18.666 13.3333V15.2M18.666 14.6667V12C18.666 11.2928 18.3851 10.6145 17.885 10.1144C17.3849 9.61428 16.7066 9.33333 15.9993 9.33333C15.2921 9.33333 14.6138 9.61428 14.1137 10.1144C13.6136 10.6145 13.3327 11.2928 13.3327 12V14.6667M13.3327 14V6.66667C13.3327 5.95942 13.0517 5.28115 12.5516 4.78105C12.0515 4.28095 11.3733 4 10.666 4C9.95877 4 9.28049 4.28095 8.7804 4.78105C8.2803 5.28115 7.99935 5.95942 7.99935 6.66667V18.6667M9.33282 20L6.98615 17.6533C6.4797 17.1928 5.81554 16.9446 5.13118 16.9603C4.44682 16.9759 3.79468 17.2541 3.30978 17.7373C2.82488 18.2205 2.54437 18.8716 2.52632 19.5559C2.50827 20.2402 2.75407 20.9053 3.21282 21.4133L8.01282 26.2133C9.99949 28.1867 12.2662 29.3333 15.9995 29.3333H18.6662C21.4951 29.3333 24.2082 28.2095 26.2086 26.2091C28.209 24.2088 29.3328 21.4956 29.3328 18.6667V9.33333C29.3328 8.62609 29.0519 7.94781 28.5518 7.44772C28.0517 6.94762 27.3734 6.66667 26.6662 6.66667C25.9589 6.66667 25.2806 6.94762 24.7805 7.44772C24.2804 7.94781 23.9995 8.62609 23.9995 9.33333V16" stroke="#232230" stroke-width="2" stroke-linecap="round" stroke-linejoin="round"/>
</svg>
