<svg width="32" height="32" viewBox="0 0 32 32" fill="none" xmlns="http://www.w3.org/2000/svg">
<path d="M10.666 2.66602L13.1727 5.17268M18.8262 5.17268L21.3328 2.66602M11.9994 9.50617V8.17284C11.9753 7.6325 12.0608 7.09287 12.2509 6.58651C12.4411 6.08014 12.7318 5.61755 13.1056 5.22664C13.4794 4.83573 13.9286 4.52461 14.4259 4.31205C14.9233 4.09949 15.4586 3.98991 15.9994 3.98991C16.5403 3.98991 17.0756 4.09949 17.573 4.31205C18.0703 4.52461 18.5195 4.83573 18.8933 5.22664C19.2671 5.61755 19.5578 6.08014 19.7479 6.58651C19.9381 7.09287 20.0236 7.6325 19.9994 8.17284V9.50617M15.9993 26.666C11.5993 26.666 7.99935 23.066 7.99935 18.666V14.666C7.99935 13.2515 8.56125 11.895 9.56145 10.8948C10.5616 9.89459 11.9182 9.33268 13.3327 9.33268H18.666C20.0805 9.33268 21.4371 9.89459 22.4372 10.8948C23.4374 11.895 23.9993 13.2515 23.9993 14.666V18.666C23.9993 23.066 20.3993 26.666 15.9993 26.666ZM15.9993 26.666V14.666M8.70602 11.9993C6.13268 11.7327 3.99935 9.46602 3.99935 6.66602M7.99935 17.3327H2.66602M3.99935 27.9993C3.99935 25.1993 6.26602 22.7993 9.06602 22.666M27.9593 6.66602C27.9593 9.46602 25.826 11.7327 23.2926 11.9993M29.3327 17.3327H23.9993M22.9326 22.666C25.7326 22.7993 27.9993 25.1993 27.9993 27.9993" stroke="#232230" stroke-width="2" stroke-linecap="round" stroke-linejoin="round"/>
</svg>
