<svg width="32" height="32" viewBox="0 0 32 32" fill="none" xmlns="http://www.w3.org/2000/svg">
<path d="M15.9993 2.66602V12.666M15.9993 12.666C14.1584 12.666 12.666 14.1584 12.666 15.9993M15.9993 12.666C17.8403 12.666 19.3327 14.1584 19.3327 15.9993M25.3327 6.66602L18.3594 13.6393M29.3327 15.9993H19.3327M19.3327 15.9993C19.3327 17.8403 17.8403 19.3327 15.9993 19.3327M25.3327 25.3327L18.3594 18.3594M15.9993 19.3327V29.3327M15.9993 19.3327C14.1584 19.3327 12.666 17.8403 12.666 15.9993M13.6393 18.3594L6.66602 25.3327M12.666 15.9993H2.66602M13.6393 13.6393L6.66602 6.66602M26.666 15.9993C26.666 21.8904 21.8904 26.666 15.9993 26.666C10.1083 26.666 5.33268 21.8904 5.33268 15.9993C5.33268 10.1083 10.1083 5.33268 15.9993 5.33268C21.8904 5.33268 26.666 10.1083 26.666 15.9993Z" stroke="#232230" stroke-width="2" stroke-linecap="round" stroke-linejoin="round"/>
</svg>
