<svg width="32" height="32" viewBox="0 0 32 32" fill="none" xmlns="http://www.w3.org/2000/svg">
<path d="M7.99935 25.3327V6.66602M7.99935 6.66602C6.58486 6.66602 5.22831 7.22792 4.22811 8.22811C3.22792 9.22831 2.66602 10.5849 2.66602 11.9993V25.3327M7.99935 6.66602C10.666 6.66602 13.3327 8.43935 15.9993 11.9993C18.666 15.5593 21.3327 17.3327 23.9993 17.3327M13.3327 25.3327V9.06608M18.666 25.3326V14.9326M23.9993 6.66602V11.9993M23.9993 25.3327V17.3327M23.9993 17.3327C24.89 17.3318 25.7663 17.108 26.5482 16.6815C27.3302 16.2549 27.9928 15.6394 28.4757 14.891C28.9586 14.1426 29.2464 13.2852 29.3128 12.397C29.3792 11.5088 29.2221 10.6181 28.8559 9.80618C28.4896 8.99429 27.9258 8.28706 27.216 7.74903C26.5062 7.211 25.673 6.85931 24.7923 6.72605C23.9116 6.59279 23.0116 6.68221 22.1744 6.98614C21.3372 7.29007 20.5894 7.79884 19.9993 8.46602M29.3327 25.3327V11.9993" stroke="#232230" stroke-width="2" stroke-linecap="round" stroke-linejoin="round"/>
</svg>
