<svg width="32" height="32" viewBox="0 0 32 32" fill="none" xmlns="http://www.w3.org/2000/svg">
<path d="M8.00442 6.83275C7.98063 6.29999 8.06362 5.76784 8.24849 5.26762C8.43337 4.7674 8.71641 4.30919 9.08096 3.91996C9.44551 3.53072 9.88422 3.21831 10.3713 3.0011C10.8583 2.7839 11.3839 2.66628 11.9171 2.65517C12.4503 2.64405 12.9803 2.73967 13.476 2.93639C13.9717 3.13311 14.423 3.42697 14.8034 3.80068C15.1839 4.17438 15.4858 4.6204 15.6913 5.11248C15.8969 5.60457 16.002 6.13279 16.0004 6.66608V23.9994M8.00442 6.83275C7.22069 7.03427 6.49309 7.41148 5.87673 7.93583C5.26037 8.46018 4.77141 9.11791 4.44688 9.85921C4.12236 10.6005 3.97077 11.4059 4.00361 12.2145C4.03645 13.0231 4.25285 13.8135 4.63642 14.5261M8.00442 6.83275C8.03079 7.47773 8.21267 8.10668 8.5349 8.66602M4.63642 14.5261C3.962 15.074 3.43166 15.7784 3.09154 16.578C2.75143 17.3776 2.61183 18.2482 2.68491 19.1141C2.75798 19.9799 3.04151 20.8148 3.51083 21.5461C3.98015 22.2774 4.62104 22.883 5.37776 23.3101M4.63642 14.5261C4.88034 14.3274 5.14133 14.152 5.41639 13.9993M5.37776 23.3101C5.28431 24.0331 5.34008 24.7675 5.54161 25.4681C5.74314 26.1687 6.08615 26.8205 6.54947 27.3834C7.01279 27.9462 7.58657 28.408 8.23538 28.7404C8.8842 29.0728 9.59426 29.2687 10.3217 29.3159C11.0492 29.3631 11.7786 29.2606 12.4649 29.0149C13.1513 28.7692 13.7799 28.3853 14.3121 27.8871C14.8443 27.3889 15.2687 26.7868 15.559 26.1182C15.8494 25.4495 15.9996 24.7284 16.0004 23.9994M5.37776 23.3101C6.17811 23.7615 7.08138 23.9996 8.00027 23.9992M16.0004 23.9994L24.0003 23.9993C24.7076 23.9993 25.3858 24.2803 25.8859 24.7804C26.386 25.2805 26.667 25.9588 26.667 26.666V27.9993M12.0003 17.3327C13.1197 16.9389 14.0972 16.222 14.8092 15.2727C15.5212 14.3234 15.9357 13.1842 16.0003 11.9993M16.0003 17.3327H21.3337M16.0003 10.666H26.667M21.3337 10.666V6.66602C21.3337 5.95877 21.6146 5.28049 22.1147 4.7804C22.6148 4.2803 23.2931 3.99935 24.0003 3.99935M22.0003 17.3327C22.0003 17.7009 21.7018 17.9993 21.3337 17.9993C20.9655 17.9993 20.667 17.7009 20.667 17.3327C20.667 16.9645 20.9655 16.666 21.3337 16.666C21.7018 16.666 22.0003 16.9645 22.0003 17.3327ZM24.667 3.99935C24.667 4.36754 24.3685 4.66602 24.0003 4.66602C23.6321 4.66602 23.3337 4.36754 23.3337 3.99935C23.3337 3.63116 23.6321 3.33268 24.0003 3.33268C24.3685 3.33268 24.667 3.63116 24.667 3.99935ZM27.3337 27.9993C27.3337 28.3675 27.0352 28.666 26.667 28.666C26.2988 28.666 26.0003 28.3675 26.0003 27.9993C26.0003 27.6312 26.2988 27.3327 26.667 27.3327C27.0352 27.3327 27.3337 27.6312 27.3337 27.9993ZM27.3337 10.666C27.3337 11.0342 27.0352 11.3327 26.667 11.3327C26.2988 11.3327 26.0003 11.0342 26.0003 10.666C26.0003 10.2978 26.2988 9.99935 26.667 9.99935C27.0352 9.99935 27.3337 10.2978 27.3337 10.666Z" stroke="#232230" stroke-width="2" stroke-linecap="round" stroke-linejoin="round"/>
</svg>
