<svg width="32" height="32" viewBox="0 0 32 32" fill="none" xmlns="http://www.w3.org/2000/svg">
<path d="M22.6667 25.3333C22.6667 26.8061 23.8606 28 25.3333 28C26.8061 28 28 26.8061 28 25.3333C28 23.8606 26.8061 22.6667 25.3333 22.6667C23.8606 22.6667 22.6667 23.8606 22.6667 25.3333ZM22.6667 25.3333H6.66667M6.66667 9.33333C8.13943 9.33333 9.33333 8.13943 9.33333 6.66667C9.33333 5.19391 8.13943 4 6.66667 4C5.19391 4 4 5.19391 4 6.66667C4 8.13943 5.19391 9.33333 6.66667 9.33333ZM6.66667 9.33333V25.3333M6.66667 25.3333L14.6667 17.3333" stroke="#232230" stroke-width="2" stroke-linecap="round" stroke-linejoin="round"/>
</svg>
