<svg width="32" height="32" viewBox="0 0 32 32" fill="none" xmlns="http://www.w3.org/2000/svg">
<path d="M13.4199 16.6569L5.17989 18.4142C4.86005 18.4836 4.52574 18.4243 4.24928 18.2492C3.97281 18.074 3.77641 17.7971 3.70256 17.4782L2.98656 14.6115C2.90238 14.2662 2.95018 13.9018 3.12061 13.5898C3.29103 13.2778 3.57179 13.0407 3.90789 12.9249L21.9132 7.00488M18.0801 15.6623L23.8561 14.4303M21.3334 27.9997L17.1934 19.7197M8.21063 11.5104L9.69597 17.4517M10.6667 27.9997L14.8067 19.7197M21.9799 7.91983C21.8085 7.23381 21.9166 6.5078 22.2804 5.90146C22.6442 5.29512 23.234 4.8581 23.9199 4.6865L25.3733 4.32383C25.7161 4.23831 26.0789 4.29236 26.3819 4.47411C26.6849 4.65586 26.9033 4.95045 26.9893 5.29316L29.0093 13.3732C29.0952 13.7162 29.0413 14.0793 28.8596 14.3826C28.6778 14.6859 28.383 14.9046 28.0399 14.9905L26.5866 15.3532C25.9006 15.5246 25.1746 15.4165 24.5682 15.0527C23.9619 14.6889 23.5249 14.0991 23.3533 13.4132L21.9799 7.91983ZM18.6667 17.333C18.6667 18.8058 17.4728 19.9997 16 19.9997C14.5273 19.9997 13.3334 18.8058 13.3334 17.333C13.3334 15.8602 14.5273 14.6663 16 14.6663C17.4728 14.6663 18.6667 15.8602 18.6667 17.333Z" stroke="#232230" stroke-width="2" stroke-linecap="round" stroke-linejoin="round"/>
</svg>
