<svg width="32" height="32" viewBox="0 0 32 32" fill="none" xmlns="http://www.w3.org/2000/svg">
<path d="M9.33343 25.3333H6.4201C5.99952 25.3346 5.58577 25.227 5.21899 25.0212C4.85222 24.8154 4.54486 24.5183 4.32676 24.1587C4.11731 23.7975 4.00656 23.3876 4.00562 22.97C4.00469 22.5525 4.1136 22.1421 4.32143 21.78L9.59476 12.6667M9.59476 12.6667L11.0575 18.128M9.59476 12.6667L4.13354 14.1307M14.6667 25.3335H25.6041C26.0226 25.3302 26.4333 25.2194 26.7967 25.0115C27.16 24.8037 27.4638 24.5059 27.6787 24.1468C27.8853 23.7866 27.994 23.3786 27.994 22.9635C27.994 22.5483 27.8853 22.1403 27.6787 21.7801L26.0441 18.9535M14.6667 25.3335L18.6667 21.3333M14.6667 25.3335L18.6667 29.3333M12.4587 7.748L13.9161 5.22534C14.1253 4.86053 14.4253 4.55601 14.787 4.34132C15.1486 4.12663 15.5596 4.00905 15.9801 4C16.3973 3.99923 16.8074 4.10822 17.1693 4.31604C17.5311 4.52386 17.8318 4.8232 18.0414 5.184L23.2987 14.308M23.2987 14.308L17.8373 12.844M23.2987 14.308L24.7613 8.84668" stroke="#232230" stroke-width="2" stroke-linecap="round" stroke-linejoin="round"/>
</svg>
