<svg width="32" height="32" viewBox="0 0 32 32" fill="none" xmlns="http://www.w3.org/2000/svg">
<path d="M16 15.9997V16.013M14.4361 21.8385C13.039 22.5445 11.4674 22.8311 9.91097 22.6636C8.35456 22.4961 6.8799 21.8817 5.66497 20.8946C4.45004 19.9075 3.54678 18.5898 3.06421 17.1007C2.58164 15.6115 2.54039 14.0145 2.94545 12.5025L10.1614 14.4358C9.45541 13.0387 9.16885 11.467 9.33633 9.91064C9.50382 8.35424 10.1182 6.87958 11.1053 5.66465C12.0924 4.44972 13.4101 3.54646 14.8992 3.06389C16.3884 2.58132 17.9854 2.54007 19.4974 2.94512L17.5641 10.1611C18.9612 9.45509 20.5329 9.16853 22.0893 9.33601C23.6457 9.50349 25.1203 10.1179 26.3353 11.105C27.5502 12.0921 28.4534 13.4097 28.936 14.8989C29.4186 16.3881 29.4598 17.985 29.0548 19.4971L21.8388 17.5638C22.5448 18.9609 22.8314 20.5325 22.6639 22.0889C22.4964 23.6453 21.882 25.12 20.8949 26.3349C19.9078 27.5499 18.5902 28.4531 17.101 28.9357C15.6118 29.4183 14.0149 29.4595 12.5028 29.0545L14.4361 21.8385Z" stroke="#232230" stroke-width="2" stroke-linecap="round" stroke-linejoin="round"/>
</svg>
