<svg width="32" height="32" viewBox="0 0 32 32" fill="none" xmlns="http://www.w3.org/2000/svg">
<path d="M26.6666 3.99967V9.33301M29.3333 6.66634H24M5.33329 22.6663V25.333M6.66663 23.9997H3.99996M13.2492 20.6663C13.1302 20.2049 12.8897 19.7838 12.5527 19.4469C12.2157 19.1099 11.7946 18.8694 11.3332 18.7503L3.15321 16.641C3.01365 16.6014 2.89082 16.5173 2.80336 16.4016C2.7159 16.2859 2.66858 16.1448 2.66858 15.9997C2.66858 15.8546 2.7159 15.7135 2.80336 15.5978C2.89082 15.482 3.01365 15.398 3.15321 15.3583L11.3332 13.2477C11.7945 13.1288 12.2155 12.8884 12.5524 12.5517C12.8894 12.215 13.13 11.7942 13.2492 11.333L15.3585 3.15301C15.3978 3.01291 15.4817 2.88947 15.5976 2.80154C15.7136 2.71361 15.8551 2.66602 16.0005 2.66602C16.146 2.66602 16.2875 2.71361 16.4035 2.80154C16.5194 2.88947 16.6033 3.01291 16.6425 3.15301L18.7505 11.333C18.8696 11.7944 19.1101 12.2155 19.4471 12.5525C19.784 12.8895 20.2051 13.13 20.6665 13.249L28.8465 15.357C28.9872 15.3958 29.1113 15.4797 29.1997 15.5958C29.2881 15.7119 29.3359 15.8538 29.3359 15.9997C29.3359 16.1456 29.2881 16.2875 29.1997 16.4036C29.1113 16.5197 28.9872 16.6035 28.8465 16.6423L20.6665 18.7503C20.2051 18.8694 19.784 19.1099 19.4471 19.4469C19.1101 19.7838 18.8696 20.2049 18.7505 20.6663L16.6412 28.8463C16.602 28.9865 16.518 29.1099 16.4021 29.1978C16.2862 29.2858 16.1447 29.3333 15.9992 29.3333C15.8537 29.3333 15.7122 29.2858 15.5963 29.1978C15.4804 29.1099 15.3964 28.9865 15.3572 28.8463L13.2492 20.6663Z" stroke="#232230" stroke-width="2" stroke-linecap="round" stroke-linejoin="round"/>
</svg>
