<svg width="32" height="32" viewBox="0 0 32 32" fill="none" xmlns="http://www.w3.org/2000/svg">
<path d="M20 2.66699V5.33366M20 26.667V29.3337M2.66666 20.0003H5.33332M2.66666 12.0003H5.33332M26.6667 20.0003H29.3333M26.6667 12.0003H29.3333M12 2.66699V5.33366M12 26.667V29.3337M7.99999 5.33366H24C25.4727 5.33366 26.6667 6.52757 26.6667 8.00033V24.0003C26.6667 25.4731 25.4727 26.667 24 26.667H7.99999C6.52723 26.667 5.33332 25.4731 5.33332 24.0003V8.00033C5.33332 6.52757 6.52723 5.33366 7.99999 5.33366ZM13.3333 12.0003H18.6667C19.403 12.0003 20 12.5973 20 13.3337V18.667C20 19.4034 19.403 20.0003 18.6667 20.0003H13.3333C12.5969 20.0003 12 19.4034 12 18.667V13.3337C12 12.5973 12.5969 12.0003 13.3333 12.0003Z" stroke="#232230" stroke-width="2" stroke-linecap="round" stroke-linejoin="round"/>
</svg>
