<svg width="32" height="32" viewBox="0 0 32 32" fill="none" xmlns="http://www.w3.org/2000/svg">
<path d="M16 17.333C16.7364 17.333 17.3334 16.7361 17.3334 15.9997C17.3334 15.2633 16.7364 14.6663 16 14.6663C15.2636 14.6663 14.6667 15.2633 14.6667 15.9997C14.6667 16.7361 15.2636 17.333 16 17.333Z" stroke="#232230" stroke-width="2" stroke-linecap="round" stroke-linejoin="round"/>
<path d="M16 7.99967C16.7364 7.99967 17.3334 7.40272 17.3334 6.66634C17.3334 5.92996 16.7364 5.33301 16 5.33301C15.2636 5.33301 14.6667 5.92996 14.6667 6.66634C14.6667 7.40272 15.2636 7.99967 16 7.99967Z" stroke="#232230" stroke-width="2" stroke-linecap="round" stroke-linejoin="round"/>
<path d="M16 26.6663C16.7364 26.6663 17.3334 26.0694 17.3334 25.333C17.3334 24.5966 16.7364 23.9997 16 23.9997C15.2636 23.9997 14.6667 24.5966 14.6667 25.333C14.6667 26.0694 15.2636 26.6663 16 26.6663Z" stroke="#232230" stroke-width="2" stroke-linecap="round" stroke-linejoin="round"/>
</svg>
