<svg width="32" height="32" viewBox="0 0 32 32" fill="none" xmlns="http://www.w3.org/2000/svg">
<path d="M16 26.667C18.8289 26.667 21.542 25.5432 23.5424 23.5428C25.5428 21.5424 26.6666 18.8293 26.6666 16.0003C26.6666 13.1713 25.5428 10.4582 23.5424 8.45785C21.542 6.45747 18.8289 5.33366 16 5.33366M16 26.667C13.171 26.667 10.4579 25.5432 8.45749 23.5428C6.4571 21.5424 5.33329 18.8293 5.33329 16.0003M16 26.667V29.3337M16 5.33366C13.171 5.33366 10.4579 6.45747 8.45749 8.45785C6.4571 10.4582 5.33329 13.1713 5.33329 16.0003M16 5.33366V2.66699M5.33329 16.0003H2.66663M18.6666 16.0003C18.6666 16.7076 18.3857 17.3858 17.8856 17.8859C17.3855 18.386 16.7072 18.667 16 18.667C15.2927 18.667 14.6144 18.386 14.1143 17.8859C13.6142 17.3858 13.3333 16.7076 13.3333 16.0003C13.3333 15.2931 13.6142 14.6148 14.1143 14.1147C14.6144 13.6146 15.2927 13.3337 16 13.3337C16.7072 13.3337 17.3855 13.6146 17.8856 14.1147C18.3857 14.6148 18.6666 15.2931 18.6666 16.0003ZM18.6666 16.0003H29.3333M22.6666 27.5469L21.3333 25.2402M14.6666 13.6938L9.33329 4.45378M27.5465 22.667L25.2399 21.3337M4.45341 9.33366L6.76008 10.667M27.5465 9.33366L25.2399 10.667M4.45341 22.667L6.76008 21.3337M22.6666 4.45378L21.3333 6.76044M14.6666 18.307L9.33329 27.547" stroke="#232230" stroke-width="2" stroke-linecap="round" stroke-linejoin="round"/>
</svg>
