<svg width="32" height="32" viewBox="0 0 32 32" fill="none" xmlns="http://www.w3.org/2000/svg">
<path d="M18.6667 5.46712L16 8.00046M6.79992 10.6669L2.93326 9.60026M7.99996 16.0003L5.46662 18.667M9.59992 2.93359L10.6666 6.80026M12.0494 12.9202C11.9977 12.7984 11.9835 12.6639 12.0088 12.5341C12.034 12.4042 12.0975 12.2848 12.1911 12.1912C12.2846 12.0977 12.404 12.0342 12.5339 12.0089C12.6638 11.9837 12.7982 11.9978 12.92 12.0495L27.5867 18.0495C27.7172 18.1031 27.8274 18.1967 27.9014 18.3168C27.9753 18.437 28.0093 18.5775 27.9983 18.7181C27.9873 18.8588 27.932 18.9924 27.8403 19.0996C27.7486 19.2068 27.6253 19.2822 27.488 19.3149L21.6894 20.7029C21.45 20.76 21.2311 20.8824 21.057 21.0563C20.8828 21.2302 20.7602 21.4489 20.7027 21.6882L19.316 27.4882C19.2837 27.6259 19.2084 27.7498 19.1011 27.8419C18.9937 27.934 18.8598 27.9896 18.7188 28.0006C18.5777 28.0115 18.4369 27.9774 18.3165 27.903C18.1962 27.8286 18.1026 27.7179 18.0494 27.5869L12.0494 12.9202Z" stroke="#232230" stroke-width="2" stroke-linecap="round" stroke-linejoin="round"/>
</svg>
