<svg width="32" height="32" viewBox="0 0 32 32" fill="none" xmlns="http://www.w3.org/2000/svg">
<path d="M4 9.33333V6.66667C4 5.95942 4.28095 5.28115 4.78105 4.78105C5.28115 4.28095 5.95942 4 6.66667 4H9.33333M22.6667 4H25.3333C26.0406 4 26.7189 4.28095 27.219 4.78105C27.719 5.28115 28 5.95942 28 6.66667V9.33333M28 22.6667V25.3333C28 26.0406 27.719 26.7189 27.219 27.219C26.7189 27.719 26.0406 28 25.3333 28H22.6667M9.33333 28H6.66667C5.95942 28 5.28115 27.719 4.78105 27.219C4.28095 26.7189 4 26.0406 4 25.3333V22.6667M10.6667 10.6667H21.3333C22.0697 10.6667 22.6667 11.2636 22.6667 12V20C22.6667 20.7364 22.0697 21.3333 21.3333 21.3333H10.6667C9.93029 21.3333 9.33333 20.7364 9.33333 20V12C9.33333 11.2636 9.93029 10.6667 10.6667 10.6667Z" stroke="#232230" stroke-width="2" stroke-linecap="round" stroke-linejoin="round"/>
</svg>
