<svg width="32" height="32" viewBox="0 0 32 32" fill="none" xmlns="http://www.w3.org/2000/svg">
<path d="M20 8V24C20 24.7911 20.2346 25.5645 20.6741 26.2223C21.1136 26.8801 21.7384 27.3928 22.4693 27.6955C23.2002 27.9983 24.0044 28.0775 24.7804 27.9231C25.5563 27.7688 26.269 27.3878 26.8284 26.8284C27.3878 26.269 27.7688 25.5563 27.9231 24.7804C28.0775 24.0044 27.9983 23.2002 27.6955 22.4693C27.3928 21.7384 26.8801 21.1136 26.2223 20.6741C25.5645 20.2346 24.7911 20 24 20H8C7.20888 20 6.43552 20.2346 5.77772 20.6741C5.11992 21.1136 4.60723 21.7384 4.30448 22.4693C4.00173 23.2002 3.92252 24.0044 4.07686 24.7804C4.2312 25.5563 4.61216 26.269 5.17157 26.8284C5.73098 27.3878 6.44372 27.7688 7.21964 27.9231C7.99556 28.0775 8.79983 27.9983 9.53074 27.6955C10.2616 27.3928 10.8864 26.8801 11.3259 26.2223C11.7654 25.5645 12 24.7911 12 24V8C12 7.20888 11.7654 6.43552 11.3259 5.77772C10.8864 5.11992 10.2616 4.60723 9.53074 4.30448C8.79983 4.00173 7.99556 3.92252 7.21964 4.07686C6.44372 4.2312 5.73098 4.61216 5.17157 5.17157C4.61216 5.73098 4.2312 6.44372 4.07686 7.21964C3.92252 7.99556 4.00173 8.79983 4.30448 9.53074C4.60723 10.2616 5.11992 10.8864 5.77772 11.3259C6.43552 11.7654 7.20888 12 8 12H24C24.7911 12 25.5645 11.7654 26.2223 11.3259C26.8801 10.8864 27.3928 10.2616 27.6955 9.53074C27.9983 8.79983 28.0775 7.99556 27.9231 7.21964C27.7688 6.44372 27.3878 5.73098 26.8284 5.17157C26.269 4.61216 25.5563 4.2312 24.7804 4.07686C24.0044 3.92252 23.2002 4.00173 22.4693 4.30448C21.7384 4.60723 21.1136 5.11992 20.6741 5.77772C20.2346 6.43552 20 7.20888 20 8Z" stroke="#232230" stroke-width="2" stroke-linecap="round" stroke-linejoin="round"/>
</svg>
