<svg width="32" height="32" viewBox="0 0 32 32" fill="none" xmlns="http://www.w3.org/2000/svg">
<path d="M8.63995 4.87967C11.2041 3.18019 14.277 2.41961 17.3378 2.72684C20.3986 3.03408 23.259 4.39022 25.4342 6.56542C27.6094 8.74061 28.9655 11.601 29.2728 14.6618C29.58 17.7227 28.8194 20.7955 27.12 23.3597M8.54653 8.54622L23.4532 23.4529M4.87997 8.63965C3.18049 11.2038 2.41991 14.2767 2.72715 17.3375C3.03438 20.3983 4.39053 23.2587 6.56572 25.4339C8.74092 27.6091 11.6013 28.9652 14.6621 29.2725C17.723 29.5797 20.7958 28.8191 23.36 27.1196M28 25.333C28 26.8058 26.8061 27.9997 25.3333 27.9997C23.8606 27.9997 22.6666 26.8058 22.6666 25.333C22.6666 23.8602 23.8606 22.6663 25.3333 22.6663C26.8061 22.6663 28 23.8602 28 25.333ZM9.33331 6.66634C9.33331 8.1391 8.13941 9.33301 6.66665 9.33301C5.19389 9.33301 3.99998 8.1391 3.99998 6.66634C3.99998 5.19358 5.19389 3.99967 6.66665 3.99967C8.13941 3.99967 9.33331 5.19358 9.33331 6.66634Z" stroke="#232230" stroke-width="2" stroke-linecap="round" stroke-linejoin="round"/>
</svg>
