<svg width="32" height="32" viewBox="0 0 32 32" fill="none" xmlns="http://www.w3.org/2000/svg">
<path d="M9.32027 4.4534C11.8635 2.98303 14.8212 2.39376 17.7338 2.77712C20.6463 3.16048 23.3508 4.49502 25.4269 6.5734L17.8802 14.1199M5.33329 8H5.34663M3.05311 12.8268C2.55323 14.8629 2.54055 16.9881 3.01608 19.03C3.49161 21.072 4.44195 22.9729 5.78996 24.5787C7.13796 26.1844 8.84562 27.4496 10.7743 28.2716C12.703 29.0936 14.7983 29.4492 16.8902 29.3095C18.9821 29.1699 21.0116 28.5388 22.8139 27.4677C24.6161 26.3966 26.1404 24.9156 27.263 23.1449C28.3855 21.3742 29.0747 19.3637 29.2745 17.2767C29.4744 15.1897 29.1792 13.085 28.4131 11.1335M21.653 10.3466C20.8857 9.57478 19.969 8.96767 18.9589 8.56239C17.9489 8.1571 16.8668 7.96217 15.7788 7.9895C14.6909 8.01684 13.6199 8.26587 12.6315 8.72137C11.6431 9.17686 10.758 9.82924 10.0304 10.6386C9.30285 11.4479 8.74804 12.3972 8.39997 13.4284C8.0519 14.4595 7.91788 15.5508 8.00611 16.6356C8.09435 17.7203 8.40298 18.7756 8.91312 19.737C9.42327 20.6983 10.1242 21.5454 10.973 22.2266M16 24H16.0133M23.9867 15.5465C24.0592 16.815 23.8285 18.0826 23.3138 19.2442C22.7991 20.4058 22.015 21.4282 21.0267 22.2265M18.6666 16C18.6666 17.4728 17.4727 18.6667 16 18.6667C14.5272 18.6667 13.3333 17.4728 13.3333 16C13.3333 14.5272 14.5272 13.3333 16 13.3333C17.4727 13.3333 18.6666 14.5272 18.6666 16Z" stroke="#232230" stroke-width="2" stroke-linecap="round" stroke-linejoin="round"/>
</svg>
