<svg width="32" height="32" viewBox="0 0 32 32" fill="none" xmlns="http://www.w3.org/2000/svg">
<path d="M15.9999 13.3337C15.2927 13.3337 14.6144 13.6146 14.1143 14.1147C13.6142 14.6148 13.3333 15.2931 13.3333 16.0003C13.3333 17.3603 13.1999 19.347 12.9866 21.3337M18.6666 17.4938C18.6666 20.6671 18.6666 26.0005 17.3333 29.3338M23.0533 28.027C23.2133 27.227 23.6267 24.9603 23.72 24.0003M2.66663 16.0003C2.66663 13.2019 3.54712 10.4744 5.1834 8.20419C6.81967 5.93398 9.12876 4.23616 11.7836 3.35121C14.4384 2.46627 17.3044 2.43908 19.9755 3.27348C22.6467 4.10788 24.9876 5.76158 26.6666 8.00033M2.66663 21.3337H2.67996M29.0667 21.3337C29.3334 18.667 29.2414 14.195 29.0667 13.3337M6.66663 26.0003C7.33329 24.0003 7.99996 20.0003 7.99996 16.0003C7.99861 15.0921 8.15191 14.1904 8.45329 13.3337M11.5333 29.3337C11.8133 28.4537 12.1333 27.5737 12.2933 26.667M12 9.06692C13.2165 8.36455 14.5965 7.99489 16.0012 7.99512C17.406 7.99534 18.7859 8.36544 20.0022 9.0682C21.2185 9.77095 22.2283 10.7816 22.9301 11.9985C23.6319 13.2153 24.0009 14.5955 24 16.0002V18.6669" stroke="#232230" stroke-width="2" stroke-linecap="round" stroke-linejoin="round"/>
</svg>
