<svg width="32" height="32" viewBox="0 0 32 32" fill="none" xmlns="http://www.w3.org/2000/svg">
<path d="M14.1301 25.8944C14.3142 26.2292 14.5848 26.5084 14.9138 26.7029C15.2427 26.8974 15.6179 27 16.0001 27C16.3822 27 16.7574 26.8974 17.0863 26.7029C17.4153 26.5084 17.6859 26.2292 17.8701 25.8944M7.2 5C5.88 6.8695 5 9.06891 5 11.5982M27 11.5982C27 9.06891 26.12 6.8695 24.8 5M9.4 11.5982C9.4 9.84828 10.0954 8.16999 11.3331 6.93258C12.5708 5.69517 14.2496 5 16 5C17.7504 5 19.4292 5.69517 20.6669 6.93258C21.9046 8.16999 22.6 9.84828 22.6 11.5982C22.6 19.2962 25.9 21.4956 25.9 21.4956H6.1C6.1 21.4956 9.4 19.2962 9.4 11.5982Z" stroke="#232230" stroke-width="2" stroke-linecap="round" stroke-linejoin="round"/>
</svg>
