<svg width="32" height="32" viewBox="0 0 32 32" fill="none" xmlns="http://www.w3.org/2000/svg">
<path d="M16 18.667C17.4728 18.667 18.6667 17.4731 18.6667 16.0003C18.6667 14.5276 17.4728 13.3337 16 13.3337C14.5272 13.3337 13.3333 14.5276 13.3333 16.0003C13.3333 17.4731 14.5272 18.667 16 18.667ZM16 18.667L12 29.3337M16 18.667L20 29.3337M16 2.66699V8.00033M9.06673 20.0003L4.40007 22.667M27.5999 9.33366L22.9333 12.0003M9.06673 12.0003L4.40007 9.33366M27.5999 22.667L22.9333 20.0003M10.6667 29.3337H21.3333M24 24.9335C25.8114 23.3133 27.0882 21.1813 27.6615 18.8196C28.2347 16.4578 28.0773 13.9777 27.2101 11.7074C26.3429 9.43707 24.8068 7.48357 22.8051 6.10537C20.8033 4.72718 18.4303 3.98926 16 3.98926C13.5697 3.98926 11.1967 4.72718 9.19495 6.10537C7.19321 7.48357 5.65712 9.43707 4.78993 11.7074C3.92275 13.9777 3.76535 16.4578 4.33856 18.8196C4.91176 21.1813 6.18856 23.3133 8 24.9335" stroke="#232230" stroke-width="2" stroke-linecap="round" stroke-linejoin="round"/>
</svg>
