<svg width="32" height="32" viewBox="0 0 32 32" fill="none" xmlns="http://www.w3.org/2000/svg">
<path d="M10.6667 4.00033H6.66667C5.95942 4.00033 5.28115 4.28128 4.78105 4.78137C4.28095 5.28147 4 5.95975 4 6.66699V25.3337C4 26.8003 5.2 28.0003 6.66667 28.0003H10.6667M21.3333 4.00033H25.3333C26.0406 4.00033 26.7189 4.28128 27.219 4.78137C27.719 5.28147 28 5.95975 28 6.66699V25.3337C28 26.0409 27.719 26.7192 27.219 27.2193C26.7189 27.7194 26.0406 28.0003 25.3333 28.0003H21.3333M16 26.667V29.3337M16 18.667V21.3337M16 10.667V13.3337M16 2.66699V5.33366" stroke="#232230" stroke-width="2" stroke-linecap="round" stroke-linejoin="round"/>
</svg>
