<svg width="32" height="32" viewBox="0 0 32 32" fill="none" xmlns="http://www.w3.org/2000/svg">
<path d="M18.6667 9.33366L22.6667 13.3337M6.66671 8.00033V13.3337M25.3334 18.667V24.0003M13.3334 2.66699V5.33366M9.33337 10.667H4.00004M28 21.3337H22.6667M14.6667 4.00033H12M28.8534 4.85372L27.1468 3.14705C26.9967 2.99547 26.8182 2.87515 26.6213 2.79302C26.4245 2.7109 26.2134 2.66862 26.0001 2.66862C25.7868 2.66862 25.5757 2.7109 25.3789 2.79302C25.182 2.87515 25.0035 2.99547 24.8534 3.14705L3.14677 24.8537C2.99519 25.0037 2.87486 25.1823 2.79274 25.3791C2.71062 25.576 2.66833 25.7871 2.66833 26.0004C2.66833 26.2137 2.71062 26.4248 2.79274 26.6216C2.87486 26.8184 2.99519 26.997 3.14677 27.1471L4.85343 28.8537C5.00253 29.0069 5.18081 29.1287 5.37776 29.2119C5.57471 29.295 5.78632 29.3379 6.0001 29.3379C6.21388 29.3379 6.4255 29.295 6.62244 29.2119C6.81939 29.1287 6.99767 29.0069 7.14677 28.8537L28.8534 7.14705C29.0066 6.99796 29.1284 6.81967 29.2116 6.62273C29.2947 6.42578 29.3376 6.21417 29.3376 6.00039C29.3376 5.7866 29.2947 5.57499 29.2116 5.37804C29.1284 5.1811 29.0066 5.00281 28.8534 4.85372Z" stroke="#232230" stroke-width="2" stroke-linecap="round" stroke-linejoin="round"/>
</svg>
