<svg width="32" height="32" viewBox="0 0 32 32" fill="none" xmlns="http://www.w3.org/2000/svg">
<path d="M29.3333 16.0003H26.0267C25.4439 15.9991 24.8769 16.1887 24.4121 16.5403C23.9474 16.8918 23.6107 17.3859 23.4533 17.947L20.32 29.0937C20.2998 29.1629 20.2577 29.2237 20.2 29.267C20.1423 29.3103 20.0721 29.3337 20 29.3337C19.9279 29.3337 19.8577 29.3103 19.8 29.267C19.7423 29.2237 19.7002 29.1629 19.68 29.0937L12.32 2.90699C12.2998 2.83775 12.2577 2.77693 12.2 2.73366C12.1423 2.69038 12.0721 2.66699 12 2.66699C11.9279 2.66699 11.8577 2.69038 11.8 2.73366C11.7423 2.77693 11.7002 2.83775 11.68 2.90699L8.54666 14.0537C8.38994 14.6125 8.05516 15.105 7.59314 15.4563C7.13112 15.8077 6.56708 15.9987 5.98666 16.0003H2.66666" stroke="#232230" stroke-width="2" stroke-linecap="round" stroke-linejoin="round"/>
</svg>
