<svg width="32" height="32" viewBox="0 0 32 32" fill="none" xmlns="http://www.w3.org/2000/svg">
<path d="M16 29.3337C23.3638 29.3337 29.3334 23.3641 29.3334 16.0003C29.3334 8.63653 23.3638 2.66699 16 2.66699C8.63622 2.66699 2.66669 8.63653 2.66669 16.0003C2.66669 23.3641 8.63622 29.3337 16 29.3337Z" stroke="#232230" stroke-width="2" stroke-linecap="round" stroke-linejoin="round"/>
<path d="M16 24.0003C20.4183 24.0003 24 20.4186 24 16.0003C24 11.582 20.4183 8.00033 16 8.00033C11.5817 8.00033 8.00002 11.582 8.00002 16.0003C8.00002 20.4186 11.5817 24.0003 16 24.0003Z" stroke="#232230" stroke-width="2" stroke-linecap="round" stroke-linejoin="round"/>
<path d="M16 18.667C17.4728 18.667 18.6667 17.4731 18.6667 16.0003C18.6667 14.5276 17.4728 13.3337 16 13.3337C14.5273 13.3337 13.3334 14.5276 13.3334 16.0003C13.3334 17.4731 14.5273 18.667 16 18.667Z" stroke="#232230" stroke-width="2" stroke-linecap="round" stroke-linejoin="round"/>
</svg>
