<svg width="32" height="32" viewBox="0 0 32 32" fill="none" xmlns="http://www.w3.org/2000/svg">
<path d="M6.66669 12C8.87583 12 10.6667 10.2091 10.6667 8C10.6667 5.79086 8.87583 4 6.66669 4C4.45755 4 2.66669 5.79086 2.66669 8C2.66669 10.2091 4.45755 12 6.66669 12ZM6.66669 12V20M6.66669 20C4.45755 20 2.66669 21.7909 2.66669 24C2.66669 26.2091 4.45755 28 6.66669 28C8.87583 28 10.6667 26.2091 10.6667 24C10.6667 21.7909 8.87583 20 6.66669 20ZM16 4V28M25.3334 12C27.5425 12 29.3334 10.2091 29.3334 8C29.3334 5.79086 27.5425 4 25.3334 4C23.1242 4 21.3334 5.79086 21.3334 8C21.3334 10.2091 23.1242 12 25.3334 12ZM25.3334 12C25.3318 13.6865 24.9748 15.3538 24.2856 16.893C23.5964 18.4323 22.5904 19.809 21.3334 20.9333" stroke="#232230" stroke-width="2" stroke-linecap="round" stroke-linejoin="round"/>
</svg>
