<svg width="99" height="32" viewBox="0 0 99 32" fill="none" xmlns="http://www.w3.org/2000/svg">
<path fill-rule="evenodd" clip-rule="evenodd" d="M16.0022 0C11.7297 0 7.7446 1.63203 4.77979 4.59685C4.47551 4.90112 4.4906 5.39903 4.81248 5.68445L13.2863 13.1927C13.2524 13.3656 13.2342 13.5435 13.2342 13.7264C13.2342 14.6399 13.6774 15.4502 14.3601 15.9538C14.8159 16.2901 15.2107 16.766 15.2107 17.3325V20.1313C15.2107 20.6977 14.8159 21.1743 14.3601 21.5106C14.2451 21.5955 14.1382 21.6892 14.0376 21.7904L1.79737 11.2287C1.38496 10.8729 0.741832 11.0652 0.592837 11.5896C0.199289 12.9795 0 14.462 0 15.9984C0 24.8231 7.17817 32 15.9991 32C18.0536 32 20.0433 31.619 21.9274 30.8671C22.3103 30.7144 22.4756 30.2699 22.3046 29.8952C22.1343 29.5205 21.6929 29.3564 21.3094 29.5079C19.6221 30.1731 17.8386 30.5094 15.9991 30.5094C7.99984 30.5094 1.49121 24.0002 1.49121 15.9997C1.49121 15.7859 1.49561 15.5728 1.50378 15.361C1.54339 14.3765 2.68568 13.9653 3.43129 14.6091L13.3033 23.1263C13.2587 23.3237 13.2342 23.528 13.2342 23.7393C13.2342 24.6527 13.6774 25.4631 14.3601 25.9666C14.8159 26.303 15.2107 26.7789 15.2107 27.3459V29.4356C15.2107 29.8474 15.5445 30.1813 15.9563 30.1813C16.3681 30.1813 16.7019 29.8474 16.7019 29.4356V27.4032C16.7019 26.821 17.1175 26.3363 17.5927 26C18.3019 25.4995 18.7646 24.6735 18.7646 23.7393C18.7646 23.5098 18.7363 23.2872 18.6841 23.0748L28.5379 14.3073C29.2678 13.6579 30.4101 14.0395 30.4761 15.0139C30.4981 15.3408 30.5094 15.6703 30.5094 16.0028C30.5094 18.8193 29.7116 21.5238 28.1959 23.8663C27.9721 24.2114 28.0463 24.6766 28.3795 24.9168C28.7133 25.1575 29.1804 25.0827 29.4055 24.7382C31.1035 22.1393 31.9981 19.1342 32 16.0028C32.0013 7.17691 24.8231 0 16.0022 0ZM7.48496 6.05913C6.91224 5.5518 6.90784 4.65343 7.52708 4.2033C9.38984 2.8504 11.5562 1.97591 13.8685 1.64209C14.5946 1.5371 15.2107 2.12617 15.2107 2.85983V4.77727C15.2107 5.18905 15.5445 5.52288 15.9563 5.52288C16.3681 5.52288 16.7019 5.18905 16.7019 4.77727V2.84977C16.7019 2.11862 17.3149 1.53081 18.0385 1.63266C20.396 1.96586 22.5731 2.868 24.4264 4.19512C25.0519 4.64274 25.0532 5.54677 24.4786 6.05788L18.0026 11.8203C17.4991 11.2909 16.788 10.9603 15.9997 10.9603C15.2113 10.9603 14.4965 11.2928 13.993 11.8247L7.48496 6.05913ZM29.4885 11.4651L17.924 21.7533C17.8209 21.6533 17.7109 21.5603 17.5934 21.4773C17.1181 21.1416 16.7025 20.6563 16.7025 20.0741V17.389C16.7025 16.8069 17.1181 16.3222 17.5934 15.9865C18.3025 15.4854 18.7652 14.66 18.7652 13.7258C18.7652 13.5416 18.747 13.3612 18.7124 13.187L25.6976 6.97259C26.2175 6.50989 27.0172 6.54447 27.4459 7.0933C28.3707 8.27834 29.1157 9.60987 29.6393 11.047C29.694 11.1973 29.6079 11.3588 29.4885 11.4651Z" fill="#3F3D56"/>
<path d="M64.0485 13.1791H61.7371V23.7914H58.3543V13.1791H56.8574V10.3993H58.3543V9.72114C58.3543 8.07414 58.8166 6.86684 59.7338 6.09178C60.6511 5.31673 62.0453 4.95901 63.9017 5.00372V7.85802C63.0946 7.84312 62.5296 7.97726 62.214 8.26791C61.8985 8.55855 61.7371 9.08023 61.7371 9.84038V10.3993H64.0485V13.1791Z" fill="#3F3D56"/>
<path fill-rule="evenodd" clip-rule="evenodd" d="M41.7998 13.4398C42.3281 12.389 43.0546 11.5842 43.9645 11.0252C44.8744 10.4589 45.8943 10.1757 47.0244 10.1757C48.0076 10.1757 48.8662 10.3769 49.6073 10.7793C50.3484 11.1817 50.9354 11.6885 51.383 12.2996V10.3918H54.7364V23.7839H51.383V21.8239C50.9574 22.4499 50.3631 22.9716 49.6073 23.3814C48.8515 23.7913 47.9856 24 47.0023 24C45.8943 24 44.8817 23.7094 43.9645 23.1281C43.0546 22.5468 42.3281 21.727 41.7998 20.6762C41.2715 19.6179 41 18.4106 41 17.0394C41 15.6905 41.2642 14.4906 41.7998 13.4398ZM50.9061 14.9751C50.5905 14.3863 50.1576 13.9317 49.6219 13.6187C49.0789 13.3057 48.5066 13.1492 47.8829 13.1492C47.2592 13.1492 46.6942 13.3057 46.1658 13.6113C45.6448 13.9168 45.2192 14.364 44.889 14.9527C44.5662 15.5414 44.3974 16.242 44.3974 17.0468C44.3974 17.8517 44.5588 18.5597 44.889 19.1633C45.2119 19.767 45.6448 20.2291 46.1732 20.557C46.7015 20.8774 47.2738 21.0414 47.8755 21.0414C48.4919 21.0414 49.0716 20.8849 49.6146 20.5719C50.1576 20.2589 50.5832 19.8043 50.8987 19.2155C51.2143 18.6268 51.3757 17.9188 51.3757 17.099C51.3757 16.2792 51.2216 15.5638 50.9061 14.9751Z" fill="#3F3D56"/>
<path d="M70.0951 19.6629V13.1867H73.0376V10.4069H70.0877V7.09058H66.7344V10.4069H65.1641V13.1867H66.7417V19.6406C66.7417 22.4129 68.1432 23.799 70.9536 23.799H73.0522V20.9447H71.5039C70.9903 20.9447 70.6307 20.8404 70.4179 20.6392C70.2051 20.438 70.0951 20.1175 70.0951 19.6629Z" fill="#3F3D56"/>
<path d="M80.4629 10.8093C81.1527 10.4068 81.9452 10.2056 82.833 10.2056V13.7605H81.9525C80.9032 13.7605 80.118 14.0138 79.5824 14.5132C79.054 15.0125 78.7825 15.8844 78.7825 17.1215V23.799H75.4512V10.3994H78.7825V12.4786C79.2081 11.7632 79.7731 11.2117 80.4629 10.8093Z" fill="#3F3D56"/>
<path fill-rule="evenodd" clip-rule="evenodd" d="M87.1696 11.0252C86.2597 11.5841 85.5332 12.389 85.0049 13.4398C84.4766 14.4906 84.2124 15.6904 84.2051 17.0393C84.2051 18.4106 84.4766 19.6179 85.0049 20.6761C85.5332 21.7269 86.2597 22.5467 87.1696 23.128C88.0868 23.7093 89.0994 23.9999 90.2074 23.9999C91.1907 23.9999 92.0565 23.7913 92.8123 23.3814C93.5681 22.9715 94.1625 22.4498 94.5881 21.8238V23.7838H97.9415V10.3917H94.5881V12.2996C94.1405 11.6885 93.5535 11.1817 92.8123 10.7792C92.0712 10.3768 91.2127 10.1756 90.2294 10.1756C89.0994 10.1756 88.0795 10.4588 87.1696 11.0252ZM92.8344 13.6186C93.37 13.9316 93.803 14.3862 94.1185 14.975C94.434 15.5637 94.5881 16.2792 94.5881 17.0989C94.5881 17.9187 94.4267 18.6267 94.1111 19.2155C93.7956 19.8042 93.37 20.2588 92.827 20.5718C92.284 20.8848 91.7043 21.0413 91.088 21.0413C90.4863 21.0413 89.9139 20.8774 89.3856 20.5569C88.8573 20.229 88.4243 19.7669 88.1015 19.1633C87.7713 18.5596 87.6098 17.8516 87.6098 17.0468C87.6098 16.2419 87.7786 15.5414 88.1015 14.9526C88.4317 14.3639 88.8573 13.9167 89.3783 13.6112C89.9066 13.3056 90.4789 13.1491 91.0953 13.1491C91.719 13.1491 92.2914 13.3056 92.8344 13.6186Z" fill="#3F3D56"/>
</svg>
