<svg width="32" height="32" viewBox="0 0 32 32" fill="none" xmlns="http://www.w3.org/2000/svg">
<path fill-rule="evenodd" clip-rule="evenodd" d="M16.0022 0C11.7297 0 7.7446 1.63203 4.77979 4.59685C4.47551 4.90112 4.4906 5.39903 4.81248 5.68445L13.2863 13.1927C13.2524 13.3656 13.2342 13.5435 13.2342 13.7264C13.2342 14.6399 13.6774 15.4502 14.3601 15.9538C14.8159 16.2901 15.2107 16.766 15.2107 17.3325V20.1313C15.2107 20.6977 14.8159 21.1743 14.3601 21.5106C14.2451 21.5955 14.1382 21.6892 14.0376 21.7904L1.79737 11.2287C1.38496 10.8729 0.741832 11.0652 0.592837 11.5896C0.199289 12.9795 0 14.462 0 15.9984C0 24.8231 7.17817 32 15.9991 32C18.0536 32 20.0433 31.619 21.9274 30.8671C22.3103 30.7144 22.4756 30.2699 22.3046 29.8952C22.1343 29.5205 21.6929 29.3564 21.3094 29.5079C19.6221 30.1731 17.8386 30.5094 15.9991 30.5094C7.99984 30.5094 1.49121 24.0002 1.49121 15.9997C1.49121 15.7859 1.49561 15.5728 1.50378 15.361C1.54339 14.3765 2.68568 13.9653 3.43129 14.6091L13.3033 23.1263C13.2587 23.3237 13.2342 23.528 13.2342 23.7393C13.2342 24.6527 13.6774 25.4631 14.3601 25.9666C14.8159 26.303 15.2107 26.7789 15.2107 27.3459V29.4356C15.2107 29.8474 15.5445 30.1813 15.9563 30.1813C16.3681 30.1813 16.7019 29.8474 16.7019 29.4356V27.4032C16.7019 26.821 17.1175 26.3363 17.5927 26C18.3019 25.4995 18.7646 24.6735 18.7646 23.7393C18.7646 23.5098 18.7363 23.2872 18.6841 23.0748L28.5379 14.3073C29.2678 13.6579 30.4101 14.0395 30.4761 15.0139C30.4981 15.3408 30.5094 15.6703 30.5094 16.0028C30.5094 18.8193 29.7116 21.5238 28.1959 23.8663C27.9721 24.2114 28.0463 24.6766 28.3795 24.9168C28.7133 25.1575 29.1804 25.0827 29.4055 24.7382C31.1035 22.1393 31.9981 19.1342 32 16.0028C32.0013 7.17691 24.8231 0 16.0022 0ZM7.48496 6.05913C6.91224 5.5518 6.90784 4.65343 7.52708 4.2033C9.38984 2.8504 11.5562 1.97591 13.8685 1.64209C14.5946 1.5371 15.2107 2.12617 15.2107 2.85983V4.77727C15.2107 5.18905 15.5445 5.52288 15.9563 5.52288C16.3681 5.52288 16.7019 5.18905 16.7019 4.77727V2.84977C16.7019 2.11862 17.3149 1.53081 18.0385 1.63266C20.396 1.96586 22.5731 2.868 24.4264 4.19512C25.0519 4.64274 25.0532 5.54677 24.4786 6.05788L18.0026 11.8203C17.4991 11.2909 16.788 10.9603 15.9997 10.9603C15.2113 10.9603 14.4965 11.2928 13.993 11.8247L7.48496 6.05913ZM29.4885 11.4651L17.924 21.7533C17.8209 21.6533 17.7109 21.5603 17.5934 21.4773C17.1181 21.1416 16.7025 20.6563 16.7025 20.0741V17.389C16.7025 16.8069 17.1181 16.3222 17.5934 15.9865C18.3025 15.4854 18.7652 14.66 18.7652 13.7258C18.7652 13.5416 18.747 13.3612 18.7124 13.187L25.6976 6.97259C26.2175 6.50989 27.0172 6.54447 27.4459 7.0933C28.3707 8.27834 29.1157 9.60987 29.6393 11.047C29.694 11.1973 29.6079 11.3588 29.4885 11.4651Z" fill="#3F3D56"/>
</svg>
