<svg width="24" height="24" viewBox="0 0 24 24" fill="none" xmlns="http://www.w3.org/2000/svg">
<rect width="24" height="24" rx="4" fill="white"/>
<path fill-rule="evenodd" clip-rule="evenodd" d="M12.0014 2C9.33109 2 6.84038 3.02002 4.98737 4.87303C4.79719 5.0632 4.80662 5.37439 5.0078 5.55278L10.304 10.2454C10.2827 10.3535 10.2714 10.4647 10.2714 10.579C10.2714 11.1499 10.5484 11.6564 10.9751 11.9711C11.2599 12.1813 11.5067 12.4788 11.5067 12.8328V14.5821C11.5067 14.9361 11.2599 15.2339 10.9751 15.4441C10.9032 15.4972 10.8364 15.5557 10.7735 15.619L3.12336 9.01794C2.8656 8.79554 2.46365 8.91578 2.37052 9.24347C2.12456 10.1122 2 11.0387 2 11.999C2 17.5144 6.48636 22 11.9994 22C13.2835 22 14.5271 21.7619 15.7046 21.292C15.9439 21.1965 16.0473 20.9187 15.9404 20.6845C15.8339 20.4503 15.5581 20.3478 15.3184 20.4425C14.2638 20.8582 13.1491 21.0684 11.9994 21.0684C6.9999 21.0684 2.93201 17.0001 2.93201 11.9998C2.93201 11.8662 2.93476 11.733 2.93986 11.6006C2.96462 10.9853 3.67855 10.7283 4.14456 11.1307L10.3146 16.4539C10.2867 16.5773 10.2714 16.705 10.2714 16.837C10.2714 17.4079 10.5484 17.9144 10.9751 18.2292C11.2599 18.4394 11.5067 18.7368 11.5067 19.0912V20.3973C11.5067 20.6546 11.7153 20.8633 11.9727 20.8633C12.2301 20.8633 12.4387 20.6546 12.4387 20.3973V19.127C12.4387 18.7631 12.6984 18.4602 12.9955 18.25C13.4387 17.9372 13.7279 17.4209 13.7279 16.837C13.7279 16.6936 13.7102 16.5545 13.6776 16.4217L19.8362 10.9421C20.2924 10.5362 21.0063 10.7747 21.0476 11.3837C21.0613 11.588 21.0684 11.7939 21.0684 12.0018C21.0684 13.762 20.5698 15.4524 19.6224 16.9164C19.4826 17.1321 19.5289 17.4229 19.7372 17.573C19.9458 17.7235 20.2378 17.6767 20.3784 17.4614C21.4397 15.8371 21.9988 13.9589 22 12.0018C22.0008 6.48557 17.5144 2 12.0014 2ZM6.6781 5.78696C6.32015 5.46987 6.3174 4.90839 6.70443 4.62706C7.86865 3.7815 9.22265 3.23495 10.6678 3.02631C11.1216 2.96069 11.5067 3.32885 11.5067 3.78739V4.9858C11.5067 5.24316 11.7153 5.4518 11.9727 5.4518C12.2301 5.4518 12.4387 5.24316 12.4387 4.9858V3.7811C12.4387 3.32414 12.8218 2.95676 13.274 3.02041C14.7475 3.22866 16.1082 3.7925 17.2665 4.62195C17.6575 4.90171 17.6582 5.46673 17.2991 5.78617L13.2516 9.38767C12.9369 9.05684 12.4925 8.85016 11.9998 8.85016C11.5071 8.85016 11.0603 9.05801 10.7456 9.39042L6.6781 5.78696ZM20.4303 9.16567L13.2025 15.5958C13.1381 15.5333 13.0693 15.4752 12.9959 15.4233C12.6988 15.2135 12.4391 14.9102 12.4391 14.5463V12.8682C12.4391 12.5043 12.6988 12.2014 12.9959 11.9916C13.4391 11.6784 13.7283 11.1625 13.7283 10.5786C13.7283 10.4635 13.7169 10.3507 13.6953 10.2419L18.061 6.35787C18.3859 6.06868 18.8857 6.09029 19.1537 6.43331C19.7317 7.17397 20.1973 8.00617 20.5246 8.90438C20.5588 8.99829 20.5049 9.09927 20.4303 9.16567Z" fill="#3F3D56"/>
</svg>
